<svg version="1.1" xmlns="http://www.w3.org/2000/svg" xmlns:xlink="http://www.w3.org/1999/xlink" x="0px" y="0px" width="148px"
	 height="148px" viewBox="0 0 148 148" style="enable-background:new 0 0 148 148;" xml:space="preserve">
<style type="text/css">
	.st0{fill:none;}
	.st1{fill:#56A4F5;}
</style>
<defs>
</defs>
<g id="Capa_x0020_1_1_">
	<g id="_1336905432000_1_">
		<rect class="st0" width="148" height="148"/>
		<path class="st1" d="M32.26,28.18h4.84v-1.91c0-2.04,0.82-3.92,2.18-5.27c1.35-1.35,3.23-2.18,5.31-2.18
			c2.04,0,3.89,0.82,5.24,2.18l0.03,0.03c1.35,1.35,2.18,3.2,2.18,5.24v1.91h43.9v-1.91c0-2.04,0.86-3.92,2.21-5.27l0.16-0.13
			c1.35-1.29,3.13-2.04,5.11-2.04c2.04,0,3.92,0.82,5.27,2.18s2.21,3.23,2.21,5.27v1.91h4.84c3.69,0,7.09,1.52,9.56,3.99l0,0
			c2.47,2.47,3.99,5.83,3.99,9.56V52.4v63.24c0,3.72-1.55,7.09-3.99,9.56l0,0c-2.47,2.47-5.87,3.99-9.56,3.99H32.26
			c-3.72,0-7.12-1.52-9.56-3.99l0,0c-2.47-2.47-3.99-5.83-3.99-9.56V52.4V41.72c0-3.72,1.52-7.09,3.99-9.56l0,0
			C25.18,29.69,28.54,28.18,32.26,28.18L32.26,28.18z M46.4,100.81c1.98,0,3.76,0.79,5.04,2.08l0.13,0.16
			c1.22,1.29,1.94,3,1.94,4.88c0,1.94-0.79,3.72-2.08,5.01c-1.29,1.29-3.06,2.08-5.04,2.08c-1.94,0-3.72-0.79-5.01-2.08
			c-1.29-1.29-2.08-3.06-2.08-5.01c0-1.98,0.79-3.72,2.08-5.01C42.68,101.6,44.46,100.81,46.4,100.81z M47.88,106.44
			c-0.36-0.4-0.89-0.63-1.48-0.63c-0.56,0-1.09,0.23-1.45,0.63c-0.4,0.36-0.63,0.89-0.63,1.48c0,0.56,0.23,1.09,0.63,1.48
			c0.36,0.36,0.89,0.59,1.45,0.59c0.59,0,1.12-0.23,1.48-0.59c0.4-0.4,0.63-0.92,0.63-1.48c0-0.56-0.2-1.05-0.53-1.42L47.88,106.44z
			 M83.18,100.81c1.98,0,3.76,0.79,5.04,2.08c1.29,1.29,2.08,3.06,2.08,5.04c0,1.94-0.79,3.72-2.08,5.01
			c-1.29,1.29-3.06,2.08-5.04,2.08c-1.94,0-3.72-0.79-5.01-2.08c-1.29-1.29-2.08-3.06-2.08-5.01c0-1.98,0.79-3.72,2.08-5.01
			C79.45,101.6,81.23,100.81,83.18,100.81z M84.66,106.44c-0.36-0.4-0.89-0.63-1.48-0.63c-0.56,0-1.09,0.23-1.48,0.63
			c-0.36,0.36-0.59,0.89-0.59,1.48c0,0.56,0.23,1.09,0.59,1.48c0.4,0.36,0.92,0.59,1.48,0.59c0.59,0,1.12-0.23,1.48-0.59
			c0.4-0.4,0.63-0.92,0.63-1.48C85.29,107.33,85.06,106.81,84.66,106.44z M64.79,100.81c1.98,0,3.76,0.79,5.04,2.08l0.13,0.16
			c1.22,1.29,1.94,3,1.94,4.88c0,1.94-0.79,3.72-2.08,5.01c-1.29,1.29-3.06,2.08-5.04,2.08c-1.94,0-3.72-0.79-5.01-2.08
			c-1.29-1.29-2.08-3.06-2.08-5.01c0-1.98,0.79-3.76,2.08-5.04C61.07,101.6,62.84,100.81,64.79,100.81z M66.27,106.44
			c-0.36-0.4-0.89-0.63-1.48-0.63c-0.56,0-1.09,0.23-1.48,0.63c-0.36,0.36-0.59,0.89-0.59,1.48c0,0.56,0.23,1.09,0.59,1.48
			c0.4,0.36,0.92,0.59,1.48,0.59c0.59,0,1.12-0.23,1.48-0.59c0.4-0.4,0.63-0.92,0.63-1.48c0-0.56-0.2-1.05-0.53-1.42L66.27,106.44z
			 M46.4,82.42c1.98,0,3.76,0.79,5.04,2.08s2.08,3.06,2.08,5.04c0,1.94-0.79,3.72-2.08,5.01c-1.29,1.29-3.06,2.08-5.04,2.08
			c-1.94,0-3.72-0.79-5.01-2.08c-1.29-1.29-2.08-3.06-2.08-5.01c0-1.98,0.79-3.76,2.08-5.04C42.68,83.21,44.46,82.42,46.4,82.42z
			 M47.88,88.06c-0.36-0.4-0.89-0.63-1.48-0.63c-0.56,0-1.09,0.23-1.45,0.63c-0.4,0.36-0.63,0.89-0.63,1.48
			c0,0.56,0.23,1.09,0.63,1.48c0.36,0.36,0.89,0.59,1.45,0.59c0.59,0,1.12-0.23,1.48-0.59c0.4-0.4,0.63-0.92,0.63-1.48
			C48.51,88.94,48.28,88.42,47.88,88.06z M101.57,82.42c1.98,0,3.76,0.79,5.04,2.08s2.08,3.06,2.08,5.04c0,1.94-0.79,3.72-2.08,5.01
			c-1.29,1.29-3.06,2.08-5.04,2.08c-1.94,0-3.72-0.79-5.01-2.08c-1.29-1.29-2.08-3.06-2.08-5.01c0-1.98,0.79-3.76,2.08-5.04
			C97.84,83.21,99.62,82.42,101.57,82.42z M103.05,88.06c-0.36-0.4-0.89-0.63-1.48-0.63c-0.56,0-1.09,0.23-1.48,0.63
			c-0.36,0.36-0.59,0.89-0.59,1.48c0,0.56,0.23,1.09,0.59,1.48c0.4,0.36,0.92,0.59,1.48,0.59c0.59,0,1.12-0.23,1.48-0.59
			c0.36-0.4,0.63-0.92,0.63-1.48C103.68,88.94,103.41,88.42,103.05,88.06z M83.18,82.42c1.98,0,3.76,0.79,5.04,2.08
			s2.08,3.06,2.08,5.04c0,1.94-0.79,3.72-2.08,5.01c-1.29,1.29-3.06,2.08-5.04,2.08c-1.94,0-3.72-0.79-5.01-2.08
			c-1.29-1.29-2.08-3.06-2.08-5.01c0-1.98,0.79-3.76,2.08-5.04C79.45,83.21,81.23,82.42,83.18,82.42z M84.66,88.06
			c-0.36-0.4-0.89-0.63-1.48-0.63c-0.56,0-1.09,0.23-1.48,0.63c-0.36,0.36-0.59,0.89-0.59,1.48c0,0.56,0.23,1.09,0.59,1.48
			c0.4,0.36,0.92,0.59,1.48,0.59c0.59,0,1.12-0.23,1.48-0.59c0.4-0.4,0.63-0.92,0.63-1.48C85.29,88.94,85.06,88.42,84.66,88.06z
			 M64.79,82.42c1.98,0,3.76,0.79,5.04,2.08s2.08,3.06,2.08,5.04c0,1.94-0.79,3.72-2.08,5.01c-1.29,1.29-3.06,2.08-5.04,2.08
			c-1.94,0-3.72-0.79-5.01-2.08c-1.29-1.29-2.08-3.06-2.08-5.01c0-1.98,0.79-3.76,2.08-5.04C61.07,83.21,62.84,82.42,64.79,82.42z
			 M66.27,88.06c-0.36-0.4-0.89-0.63-1.48-0.63c-0.56,0-1.09,0.23-1.48,0.63c-0.36,0.36-0.59,0.89-0.59,1.48
			c0,0.56,0.23,1.09,0.59,1.48c0.4,0.36,0.92,0.59,1.48,0.59c0.59,0,1.12-0.23,1.48-0.59c0.4-0.4,0.63-0.92,0.63-1.48
			C66.9,88.94,66.67,88.42,66.27,88.06z M46.4,64.03c1.98,0,3.76,0.79,5.04,2.08c1.29,1.29,2.08,3.06,2.08,5.04
			c0,1.94-0.79,3.72-2.08,5.01c-1.29,1.29-3.06,2.08-5.04,2.08c-1.94,0-3.72-0.79-5.01-2.08l-0.16-0.16
			c-1.19-1.25-1.91-2.97-1.91-4.84c0-1.98,0.79-3.76,2.08-5.04C42.68,64.82,44.46,64.03,46.4,64.03z M47.88,69.67
			c-0.36-0.4-0.89-0.63-1.48-0.63c-0.56,0-1.09,0.23-1.45,0.63c-0.4,0.36-0.63,0.89-0.63,1.48c0,0.53,0.2,1.02,0.53,1.38l0.1,0.1
			c0.36,0.36,0.89,0.59,1.45,0.59c0.59,0,1.12-0.23,1.48-0.59c0.4-0.4,0.63-0.92,0.63-1.48C48.51,70.56,48.28,70.03,47.88,69.67z
			 M101.57,64.03c1.98,0,3.76,0.79,5.04,2.08c1.29,1.29,2.08,3.06,2.08,5.04c0,1.94-0.79,3.72-2.08,5.01s-3.06,2.08-5.04,2.08
			c-1.94,0-3.72-0.79-5.01-2.08l-0.16-0.16c-1.19-1.25-1.91-2.97-1.91-4.84c0-1.98,0.79-3.76,2.08-5.04
			C97.84,64.82,99.62,64.03,101.57,64.03z M103.05,69.67c-0.36-0.4-0.89-0.63-1.48-0.63c-0.56,0-1.09,0.23-1.48,0.63
			c-0.36,0.36-0.59,0.89-0.59,1.48c0,0.53,0.2,1.02,0.53,1.38l0.07,0.1c0.4,0.36,0.92,0.59,1.48,0.59c0.59,0,1.12-0.23,1.48-0.59
			c0.4-0.4,0.63-0.92,0.63-1.48C103.68,70.56,103.41,70.03,103.05,69.67z M83.18,64.03c1.98,0,3.76,0.79,5.04,2.08
			c1.29,1.29,2.08,3.06,2.08,5.04c0,1.94-0.79,3.72-2.08,5.01c-1.29,1.29-3.06,2.08-5.04,2.08c-1.94,0-3.72-0.79-5.01-2.08L78,75.99
			c-1.19-1.25-1.91-2.97-1.91-4.84c0-1.98,0.79-3.76,2.08-5.04C79.45,64.82,81.23,64.03,83.18,64.03z M84.66,69.67
			c-0.36-0.4-0.89-0.63-1.48-0.63c-0.56,0-1.09,0.23-1.48,0.63c-0.36,0.36-0.59,0.89-0.59,1.48c0,0.53,0.2,1.02,0.53,1.38l0.07,0.1
			c0.4,0.36,0.92,0.59,1.48,0.59c0.59,0,1.12-0.23,1.48-0.59c0.4-0.4,0.63-0.92,0.63-1.48C85.29,70.56,85.06,70.03,84.66,69.67z
			 M64.79,64.03c1.98,0,3.76,0.79,5.04,2.08c1.29,1.29,2.08,3.06,2.08,5.04c0,1.94-0.79,3.72-2.08,5.01
			c-1.29,1.29-3.06,2.08-5.04,2.08c-1.94,0-3.72-0.79-5.01-2.08c-1.29-1.29-2.08-3.06-2.08-5.01c0-1.98,0.79-3.76,2.08-5.04
			C61.07,64.82,62.84,64.03,64.79,64.03z M66.27,69.67c-0.36-0.4-0.89-0.63-1.48-0.63c-0.56,0-1.09,0.23-1.48,0.63
			c-0.36,0.36-0.59,0.89-0.59,1.48c0,0.56,0.23,1.09,0.59,1.48c0.4,0.36,0.92,0.59,1.48,0.59c0.59,0,1.12-0.23,1.48-0.59
			c0.4-0.4,0.63-0.92,0.63-1.48C66.9,70.56,66.67,70.03,66.27,69.67z M23.73,49.89h100.51v-8.17c0-2.34-0.96-4.48-2.47-6.03h-0.03
			c-1.52-1.55-3.66-2.5-6-2.5h-4.84v1.75v0.1v0.1v0.07l-0.03,0.1l0,0v0.1v0.1v0.1l0,0v0.1l-0.03,0.1v0.07v0.1h-0.03v0.1l0,0v0.1l0,0
			l-0.03,0.1l0,0v0.07v0.03l-0.03,0.07l0,0v0.1l0,0l-0.03,0.1l0,0l-0.03,0.07v0.03v0.07l0,0l-0.03,0.1l0,0l-0.03,0.1l0,0l-0.03,0.07
			l-0.03,0.1l0,0v0.1l0,0l-0.03,0.07l0,0l-0.03,0.1l0,0l-0.03,0.07l0,0l-0.03,0.1l0,0l-0.03,0.1l0,0l-0.03,0.07l0,0l-0.03,0.1l0,0
			l-0.03,0.07l0,0l-0.03,0.1l0,0l-0.07,0.07l0,0l-0.03,0.1l0,0l-0.03,0.07l0,0l-0.03,0.1l0,0l-0.03,0.07l0,0l-0.07,0.1l0,0
			l-0.03,0.07l0,0l-0.03,0.07l0,0l-0.1,0.16l0,0l-0.1,0.16l0,0l-0.07,0.07l0,0l-0.03,0.07l0,0l-0.07,0.1l0,0l-0.03,0.07l0,0
			l-0.16,0.2l-0.07,0.07v0.03l-0.03,0.07l-0.07,0.07l-0.07,0.07l0,0l-0.07,0.07l0,0l-0.07,0.07l0,0l-0.03,0.07l0,0l-0.13,0.13l0,0
			l-0.07,0.07l0,0l-0.07,0.07l0,0l-0.07,0.07l0,0l-0.07,0.07l0,0l-0.07,0.07l0,0l-0.07,0.03l0,0l-0.07,0.07l0,0l-0.07,0.07l0,0
			l-0.07,0.07l0,0l-0.07,0.07l0,0l-0.07,0.03l0,0l-0.07,0.07l0,0l-0.07,0.07l0,0l-0.07,0.03h-0.03l-0.07,0.07l0,0L107.73,41l0,0
			l-0.07,0.07l0,0l-0.07,0.07l0,0l-0.1,0.03l0,0l-0.07,0.07l0,0l-0.07,0.03l0,0l-0.1,0.03l0,0l-0.07,0.07l0,0l-0.07,0.03l0,0
			l-0.1,0.07l0,0l-0.07,0.03l0,0l-0.1,0.03l0,0l-0.07,0.07l0,0l-0.07,0.03l0,0l-0.1,0.03l0,0l-0.07,0.03l0,0l-0.1,0.03l0,0
			l-0.07,0.03l0,0l-0.1,0.07l0,0l-0.07,0.03h-0.03l-0.07,0.03l0,0l-0.1,0.03l0,0l-0.07,0.03l0,0l-0.1,0.03l0,0h-0.07l0,0l-0.1,0.03
			l0,0l-0.1,0.03l0,0l-0.07,0.03l0,0l-0.1,0.03l0,0l-0.1,0.03l0,0h-0.07h-0.03l-0.07,0.03l0,0l-0.1,0.03l0,0h-0.1l0,0l-0.07,0.03
			l0,0h-0.1l0,0l-0.1,0.03l0,0h-0.1l0,0l-0.1,0.03l0,0h-0.07l0,0l-0.1,0.03l0,0h-0.1l0,0h-0.1l0,0l-0.1,0.03l0,0h-0.1l0,0h-0.1l0,0
			h-0.07l0,0h-0.1l0,0h-0.1l0,0h-0.1l0,0h-0.1l0,0h-0.1l0,0h-0.1l0,0h-0.1h-0.1l0,0h-0.1l0,0h-0.16l0,0l-0.1-0.03l0,0h-0.1l0,0h-0.1
			l0,0l-0.1-0.03l0,0h-0.07l0,0l-0.1-0.03l0,0h-0.1l0,0l-0.16-0.03h-0.03l-0.07-0.03l0,0c-1.42-0.3-2.7-1.02-3.69-2.01
			c-0.56-0.56-1.02-1.19-1.38-1.88l0,0L96.59,38l0,0l-0.03-0.1l0,0l-0.03-0.07l0,0l-0.03-0.1l0,0l-0.13-0.33l-0.03-0.1l-0.07-0.16
			v-0.1l-0.03-0.07l0,0l-0.03-0.1l0,0l-0.03-0.1l0,0v-0.1l0,0l-0.03-0.07l-0.03-0.1v-0.1l-0.03-0.1v-0.07l-0.03-0.1v-0.1l0,0
			L96,35.95v-0.1l0,0v-0.07l-0.03-0.1l0,0v-0.1v-0.1l0,0v-0.1l0,0v-0.1l-0.03-0.1v-0.07v-0.1v-0.1v-1.75h-43.9v1.75v0.1v0.1v0.07
			v0.1v0.1l0,0v0.1l0,0L52,35.59v0.1l0,0v0.1l-0.03,0.07l0,0v0.1l0,0v0.1l-0.03,0.1l0,0v0.1l-0.03,0.07v0.1l-0.03,0.1l-0.03,0.1
			v0.07l-0.03,0.1l-0.03,0.1v0.1l-0.03,0.07l-0.03,0.1l-0.03,0.1l0,0l-0.03,0.07l-0.03,0.1v0.07l0,0l-0.03,0.1l-0.03,0.1l0,0
			l-0.07,0.07l-0.03,0.1l0,0l-0.03,0.07L51.38,38l-0.03,0.07l-0.03,0.1l-0.03,0.07l0,0l-0.07,0.1l0,0l-0.03,0.07l0,0l-0.03,0.1
			l-0.03,0.07l0,0l-0.07,0.07l-0.03,0.1l0,0l-0.07,0.07l-0.03,0.07l0,0l-0.07,0.1l-0.03,0.07l0,0l-0.07,0.07l-0.03,0.1l0,0
			l-0.07,0.07l0,0l-0.16,0.2l-0.03,0.07v0.03l-0.07,0.07l-0.07,0.07l-0.03,0.07l0,0l-0.07,0.07l0,0l-0.07,0.07l0,0l-0.07,0.07l0,0
			l-0.1,0.13l0,0l-0.07,0.07l0,0l-0.07,0.07l0,0l-0.07,0.07l0,0l-0.07,0.07l0,0l-0.07,0.07l0,0l-0.07,0.03l0,0l-0.07,0.07l0,0
			l-0.07,0.07l0,0l-0.07,0.07l0,0l-0.07,0.07l0,0l-0.07,0.03h-0.03l-0.07,0.07l0,0l-0.07,0.07l0,0l-0.07,0.03l0,0l-0.07,0.07l0,0
			L48.9,41l0,0l-0.1,0.07l0,0l-0.07,0.07l0,0l-0.07,0.03l0,0l-0.07,0.07l0,0l-0.1,0.03l0,0l-0.07,0.03l0,0l-0.07,0.07l0,0l-0.1,0.03
			l0,0l-0.07,0.07l0,0l-0.07,0.03h-0.03l-0.07,0.03l0,0l-0.07,0.07l0,0l-0.1,0.03l0,0l-0.07,0.03l0,0l-0.1,0.03l0,0l-0.07,0.03l0,0
			l-0.1,0.03l0,0l-0.07,0.07l0,0l-0.1,0.03l0,0l-0.07,0.03l0,0l-0.1,0.03l0,0l-0.1,0.03l0,0l-0.07,0.03l0,0h-0.1l0,0l-0.07,0.03
			h-0.03l-0.07,0.03l0,0l-0.1,0.03l0,0l-0.07,0.03H46.6l-0.07,0.03l0,0h-0.1l0,0l-0.1,0.03l0,0l-0.07,0.03l0,0h-0.1l0,0l-0.1,0.03
			l0,0h-0.1l0,0l-0.07,0.03l0,0h-0.1l0,0l-0.1,0.03l0,0h-0.1l0,0l-0.1,0.03l0,0h-0.07l0,0h-0.1l0,0l-0.1,0.03l0,0h-0.1l0,0h-0.1l0,0
			h-0.1l0,0h-0.1l0,0h-0.1l0,0h-0.07h-0.03h-0.07l0,0h-0.1l0,0h-0.1l0,0h-0.1h-0.1l0,0h-0.1l0,0h-0.1l0,0h-0.1l0,0l-0.07-0.03H43.8
			h-0.07l0,0h-0.1l0,0l-0.1-0.03l0,0h-0.1l0,0l-0.1-0.03l0,0h-0.07l0,0l-0.1-0.03l0,0h-0.1l0,0l-0.1-0.03l0,0
			c-1.42-0.3-2.7-1.02-3.69-2.01c-0.99-1.02-1.71-2.34-2.04-3.79l0,0v-0.07v-0.03l-0.03-0.07l0,0v-0.1l0,0l-0.03-0.1l0,0v-0.1l0,0
			v-0.1l0,0l-0.03-0.07l0,0v-0.1l0,0v-0.1l0,0l-0.03-0.1l0,0v-0.1l0,0v-0.1l0,0v-0.1l0,0v-0.07v-0.1v-0.1v-1.75h-4.84
			c-2.37,0-4.48,0.96-6.03,2.5l0,0c-1.55,1.55-2.5,3.69-2.5,6.03L23.73,49.89L23.73,49.89z M124.24,54.9H23.73v60.74
			c0,2.34,0.96,4.48,2.5,6.03l0,0c1.55,1.55,3.66,2.5,6.03,2.5h83.47c2.34,0,4.48-0.96,6-2.5h0.03c1.52-1.55,2.47-3.69,2.47-6.03
			V54.9z M100.94,30.68v4.25v0.03l0.03,0.03v0.03l0,0v0.03v0.03l0,0v0.03l0,0v0.03v0.03l0,0v0.03l0,0v0.03v0.03v0.03l0,0l0.03,0.03
			v0.03l0,0v0.03l0,0v0.03l0,0l0,0l0.03,0.03l0,0v0.03l0,0v0.03l0,0v0.03l0.03,0.03l0,0v0.03l0,0v0.03l0,0l0.03,0.03v0.03l0,0v0.03
			l0,0l0.03,0.03l0,0v0.03l0,0v0.03l0,0h0.03v0.03v0.03l0,0l0.03,0.03l0,0v0.03l0,0h0.03v0.03l0,0l0,0l0.03,0.03l0,0v0.03l0,0v0.03
			l0,0h0.03l0,0v0.03l0,0l0.03,0.03l0,0v0.03l0,0h0.03l0,0v0.03l0,0l0.03,0.03l0,0v0.03l0,0h0.03l0,0v0.03l0.03,0.03l0,0v0.03l0,0
			h0.03l0,0l0.03,0.03l0,0v0.03l0,0h0.03l0,0v0.03l0,0l0.03,0.03l0,0h0.03l0,0v0.03l0,0l0.03,0.03l0,0l0,0l0,0l0.03,0.03l0,0
			l0.03,0.03l0,0l0,0l0,0l0.03,0.03l0,0h0.03l0,0v0.03l0,0l0.03,0.03l0,0h0.03l0,0v0.03l0,0c0.26,0.2,0.53,0.33,0.86,0.43l0,0h0.03
			l0,0v0.03h0.03h0.03h0.03l0,0l0.07,0.03l0,0h0.03l0,0h0.07l0,0h0.03l0,0h0.03l0,0v0.03h0.03h0.03l0,0h0.03l0,0h0.03l0,0h0.03l0,0
			h0.03l0,0h0.03h0.03l0,0h0.03h0.03h0.03h0.03h0.03h0.03h0.03l0,0h0.03h0.03h0.03l0,0h0.03l0.03-0.03l0,0h0.03l0,0h0.03h0.03l0,0
			h0.03h0.03l0.03-0.03l0,0h0.03l0,0h0.03l0,0l0,0h0.03l0,0l0.03-0.03l0,0h0.03h0.03l0,0h0.03l0,0l0.03-0.03l0,0h0.03l0,0l0,0h0.03
			v-0.03l0,0h0.03h0.03l0,0l0.03-0.03l0,0h0.03l0,0h0.03l0,0v-0.03l0,0h0.03l0,0l0.03-0.03h0.03l0,0h0.03l0,0v-0.03l0,0h0.03l0,0
			l0.03-0.03l0,0h0.03l0,0v-0.03h0.03l0,0l0,0l0.03-0.03h0.03l0,0l0.03-0.03l0,0l0,0l0,0l0.03-0.03l0,0h0.03l0,0v-0.03l0,0h0.03l0,0
			l0.03-0.03l0,0h0.03l0,0v-0.03l0,0h0.03l0,0l0.03-0.03l0,0v-0.03l0,0h0.03l0,0l0.03-0.03l0,0l0,0l0,0l0.03-0.03l0,0l0.03-0.03l0,0
			l0,0l0.03-0.03l0,0v-0.03l0,0h0.03l0,0l0.03-0.07l0,0h0.03l0,0l0.03-0.07h0.03v-0.03l0.03-0.03v-0.03h0.03l0,0v-0.03l0,0
			l0.03-0.03v-0.03h0.03l0,0v-0.03l0.03-0.03l0,0v-0.03l0,0h0.03l0,0v-0.03v-0.03l0.03-0.03l0,0v-0.03h0.03l0,0v-0.03l0,0v-0.03
			l0.03-0.03v-0.03h0.03v-0.03l0,0v-0.03l0,0l0.03-0.07l0,0v-0.03l0.03-0.03l0,0v-0.03l0,0v-0.03l0,0l0.03-0.03v-0.03l0,0v-0.03l0,0
			v-0.03l0,0l0.03-0.03l0,0l0,0v-0.03l0,0v-0.03l0,0v-0.03v-0.03l0,0l0.03-0.03v-0.03v-0.03l0,0V35.2l0,0v-0.03v-0.03l0,0V35.1l0,0
			v-0.03v-0.03l0,0V35v-0.03v-0.03v-4.25v-4.42c0-0.66-0.26-1.29-0.69-1.71c-0.46-0.46-1.09-0.73-1.75-0.73
			c-0.63,0-1.22,0.23-1.65,0.63l-0.1,0.1c-0.43,0.43-0.73,1.05-0.73,1.71L100.94,30.68L100.94,30.68z M42.12,30.68v4.25v0.03V35
			v0.03l0,0v0.03l0,0l0,0v0.03v0.03l0,0v0.03l0,0l0.03,0.03l0,0v0.03l0,0v0.03l0,0v0.03l0,0v0.03l0,0v0.07l0,0l0.03,0.03l0,0v0.03
			v0.03l0,0l0,0l0.03,0.07l0,0v0.03l0,0v0.03l0,0c0.13,0.4,0.33,0.76,0.63,1.02c0.3,0.3,0.63,0.49,1.02,0.63l0,0h0.03l0,0l0.03,0.03
			l0,0h0.07l0,0h0.03l0,0l0.07,0.03l0,0l0,0l0,0h0.07l0,0h0.03l0,0h0.03l0,0l0.03,0.03l0,0h0.03l0,0h0.03l0,0h0.03l0,0h0.03h0.03
			l0,0h0.03l0,0h0.03h0.03h0.03h0.03h0.03l0,0h0.03h0.03h0.03h0.03l0,0h0.03l0,0h0.03h0.03l0,0h0.03l0,0l0.03-0.03h0.03h0.03l0,0
			h0.03h0.03l0,0l0,0h0.03V37.3l0,0h0.03h0.03l0,0h0.03l0,0h0.03l0,0l0.03-0.03h0.03l0,0h0.03l0,0l0,0l0.03-0.03h0.03h0.03l0,0
			l0.03-0.03l0,0h0.03l0,0h0.03l0,0v-0.03l0,0h0.03h0.03l0.03-0.03l0,0h0.03l0,0l0.03-0.03l0,0l0,0l0,0h0.03l0,0l0.03-0.03l0,0h0.03
			l0,0l0.03-0.03l0,0l0,0l0,0l0.03-0.03l0,0h0.03l0,0l0.03-0.03l0,0l0,0l0,0l0.03-0.03l0,0h0.03l0,0L46,36.91l0,0l0,0l0,0l0.03-0.03
			h0.03l0,0v-0.03l0,0h0.03l0,0l0.03-0.03l0,0h0.03l0,0v-0.03l0,0l0.03-0.03l0,0h0.03l0,0v-0.03l0,0h0.03l0,0v-0.03h0.03v-0.03l0,0
			h0.03v-0.03l0,0l0.03-0.03l0,0h0.03l0,0l0.03-0.07l0,0l0,0l0,0l0.07-0.07l0,0l0.03-0.03v-0.03l0.03-0.03l0,0l0,0l0.03-0.03l0,0
			v-0.03l0.03-0.03l0,0l0,0l0.03-0.03v-0.03l0,0l0.03-0.03l0,0l0,0l0,0l0.03-0.03v-0.03v-0.03h0.03v-0.03l0,0l0,0l0.03-0.03l0,0
			v-0.03v-0.03l0.03-0.03l0,0l0.03-0.03l0,0v-0.03l0,0v-0.07l0,0l0.03-0.03v-0.03l0,0l0.03-0.03l0,0v-0.03l0,0v-0.03v-0.03l0,0
			l0.03-0.03l0,0v-0.03l0,0v-0.03l0,0l0,0l0.03-0.03l0,0v-0.03l0,0v-0.03v-0.03l0,0v-0.03v-0.03v-0.03l0,0l0.03-0.03l0,0v-0.03
			v-0.03l0,0V35.1l0,0v-0.03v-0.03l0,0V35v-0.03v-0.03v-4.25v-4.42c0-0.66-0.26-1.29-0.73-1.71l0,0c-0.43-0.46-1.05-0.73-1.71-0.73
			c-0.69,0-1.32,0.26-1.75,0.73c-0.46,0.43-0.73,1.05-0.73,1.71L42.12,30.68L42.12,30.68z"/>
	</g>
</g>
</svg>
