<svg version="1.1" xmlns="http://www.w3.org/2000/svg" xmlns:xlink="http://www.w3.org/1999/xlink" x="0px" y="0px" width="148px"
	 height="148px" viewBox="0 0 148 148" style="enable-background:new 0 0 148 148;" xml:space="preserve">
<style type="text/css">
	.st0{fill:none;}
	.st1{fill:#56A4F5;}
</style>
<defs>
</defs>
<g id="Capa_x0020_1_1_">
	<g id="_1336905422400_1_">
		<rect class="st0" width="148" height="148"/>
		<path class="st1" d="M75.09,30.51l61.26,28.66c1.26,0.59,1.76,2.1,1.17,3.27c-0.25,0.59-0.67,1.01-1.17,1.26l-20.45,9.55v31.76
			c0,3.35-1.34,6.45-3.6,8.72c-2.26,2.26-5.36,3.69-8.72,3.69H44.42c-3.35,0-6.45-1.42-8.72-3.69l0,0c-2.26-2.26-3.6-5.36-3.6-8.72
			V73.25l-6.12-2.85v36.79l2.6,10.22c0.34,1.34-0.42,2.68-1.76,3.02c-1.34,0.34-2.68-0.42-3.1-1.76l-1.34-5.61l-1.93,2.43
			c-0.84,1.09-2.43,1.26-3.52,0.42c-1.09-0.84-1.26-2.43-0.42-3.52l4.53-5.7V68.05l-9.39-4.36c-1.26-0.59-1.76-2.1-1.17-3.35
			c0.25-0.5,0.67-0.92,1.17-1.17l61.26-28.66C73.66,30.25,74.42,30.25,75.09,30.51z M73.75,58.92c1.34-0.17,2.6,0.84,2.77,2.26
			c0.08,1.34-0.92,2.6-2.26,2.68l-41.48,4.19l2.68,1.17c0.08,0.08,0.25,0.17,0.42,0.25l0,0L74,87.24l38.38-17.85l17.01-7.96
			L74,35.53l-55.4,25.9l5.36,2.43C23.97,63.86,73.75,58.92,73.75,58.92z M110.96,75.51L75.09,92.27h-0.08l0,0l0,0l0,0v0.08h-0.08
			l0,0l0,0l0,0l0,0h-0.08l0,0l0,0l0,0l0,0h-0.08l0,0v0.08l0,0l0,0l0,0h-0.08l0,0l0,0l0,0h-0.08l0,0l0,0l0,0H74.5l0,0h-0.08l0,0l0,0
			l0,0v0.08l0,0h-0.08h-0.08l0,0l0,0l0,0l0,0h-0.08l0,0l0,0l0,0h-0.08l0,0l0,0l0,0l0,0l0,0H74l0,0l0,0l0,0h-0.08l0,0l0,0l0,0l0,0
			l0,0h-0.08l0,0l0,0l0,0h-0.08l0,0l0,0l0,0l0,0h-0.08h-0.08l0,0v-0.08l0,0l0,0l0,0H73.5l0,0h-0.08l0,0l0,0l0,0h-0.08l0,0l0,0l0,0
			h-0.08l0,0l0,0l0,0v-0.08l0,0h-0.08l0,0l0,0l0,0l0,0h-0.08l0,0l0,0l0,0l0,0h-0.08v-0.08l0,0l0,0l0,0h-0.08L37.04,75.51v29.5
			c0,2.01,0.84,3.86,2.18,5.2l0,0c1.34,1.34,3.18,2.18,5.2,2.18h59.17c2.01,0,3.86-0.84,5.2-2.18c1.34-1.34,2.18-3.18,2.18-5.2
			L110.96,75.51L110.96,75.51z"/>
	</g>
</g>
</svg>
