<svg version="1.1" xmlns="http://www.w3.org/2000/svg" xmlns:xlink="http://www.w3.org/1999/xlink" x="0px" y="0px" width="460px"
	 height="445px" viewBox="0 0 460 445" style="enable-background:new 0 0 460 445;" xml:space="preserve">
<style type="text/css">
	.st0{fill:#FFFFFF;}
	.st1{fill:#FFFFFF;}
</style>
<defs>
</defs>
<g id="_2931491077136_1_">
	<path class="st0" d="M317.56,162.79h-17.34v80.67c5.89,0.63,11.69,1.69,17.34,3.04V162.79L317.56,162.79z M191.38,162.79h-17.34
		v80.96c5.99,0.87,11.78,2.34,17.34,4.43V162.79z M275.5,162.79h-17.34v85.5c5.56-2.11,11.35-3.61,17.34-4.5V162.79z M233.44,262.91
		V162.79H216.1v99.89c3.03,2.5,5.97,5.2,8.81,8.17C227.66,267.97,230.51,265.35,233.44,262.91z M149.32,162.79h-17.34v83.78
		c5.65-1.37,11.45-2.45,17.34-3.09V162.79z M113.68,155.38h15.9h190.38h15.91v-11.22H113.68L113.68,155.38L113.68,155.38z
		 M113.68,140.34h-7.64v-8.83l118.73-44.27l118.74,44.27v8.83h-7.64H113.68L113.68,140.34z"/>
	<path class="st0" d="M384.12,322.54c-18-0.11-35.32-4.84-48.82-9.88c-13.89-5.19-25.43-10.47-36.39-10.47
		c-15.07,0-25.21,5.27-31.54,10.47c-4.95,4.06-7.57,8.09-8.42,9.52c-1.54-2.66-4-6.18-7.59-9.52c-4.67-4.35-11.3-8.35-20.32-9.82
		c38.49-42.19,85.33-24.25,119.87-11.01c6.51,2.49,12.65,4.85,18.09,6.53c28.43,8.76,58.5,3.22,68.6,0.89v23.4
		C424.53,322.66,404.23,322.67,384.12,322.54L384.12,322.54z M192.23,322.18c-0.85-1.43-3.47-5.46-8.42-9.52
		c-6.33-5.2-16.47-10.47-31.53-10.47c-10.96,0-22.51,5.29-36.39,10.47c-13.51,5.04-30.83,9.77-48.83,9.88
		c-20.22,0.13-41.49,0.08-55.11,0.05v-23.34c10.1,2.33,40.18,7.87,68.6-0.9c5.44-1.67,11.59-4.03,18.09-6.52
		c34.62-13.27,81.59-31.27,120.12,11.28c-8.31,1.64-14.52,5.43-18.94,9.54C196.23,316,193.77,319.52,192.23,322.18L192.23,322.18z
		 M80.55,270.07c5.44-1.68,11.59-4.04,18.09-6.53c35.66-13.67,84.43-32.34,123.58,15.3v19.88c-40.96-44.47-91.59-25.07-125.53-12.06
		c-6.42,2.46-12.48,4.78-17.75,6.41c-28.15,8.68-58.98,2.4-66.99,0.48v-22.59C22.05,273.29,52.13,278.83,80.55,270.07z
		 M350.91,263.54c6.5,2.49,12.65,4.85,18.09,6.53c28.43,8.76,58.5,3.22,68.6,0.89v22.59c-8.01,1.92-38.81,8.21-67-0.48
		c-5.26-1.63-11.32-3.95-17.74-6.41c-33.83-12.97-84.24-32.29-125.14,11.65v-19.92C266.8,231.33,315.36,249.91,350.91,263.54
		L350.91,263.54z"/>
	<path class="st1" d="M31.29,264.47c0,0,3.1,3.91,8.18,8.18c2.87,0.18,5.88,0.3,9.01,0.3c5.99,0,11.72-0.41,17.18-1.21
		C51.08,263.72,31.29,264.47,31.29,264.47z M49.7,253.35c-9.31-19.32-41.27-23.74-41.27-23.74S25.28,260.72,49.7,253.35z
		 M30.35,209.51C28.41,188.16,0,172.66,0,172.66S4.91,207.74,30.35,209.51z M25.17,165.03c3.44-21.92-21.11-44.7-21.11-44.7
		S0.13,156.76,25.17,165.03z M26.81,119.44c8.88-18.71-7.12-45.66-7.12-45.66S6.57,105.33,26.81,119.44z M38.38,35.28
		c0,0-17.3,29.43,0.79,46.23C50.51,64.19,38.38,35.28,38.38,35.28z M72.42,270.53c2.53-0.55,5-1.19,7.38-1.92
		c0.64-0.2,1.33-0.43,1.99-0.65c4.78-19.7-13.7-40.07-13.7-40.07S63.12,253.45,72.42,270.53z M56.58,197.12
		c0,0-15.32,30.58-4.31,50.22C73.2,230.46,56.58,197.12,56.58,197.12z M52.89,156.65c0,0-23.06,25.12-17.8,47.09
		C59.79,193.26,52.89,156.65,52.89,156.65z M53.67,119.33c0,0-25.17,19.87-23.56,41.02C54.65,154.36,53.67,119.33,53.67,119.33z
		 M34.26,113.62c22.71,2.56,32.65-27.54,32.65-27.54S39.4,95.1,34.26,113.62z M46.72,76.46c21.09,8.86,38.96-17.24,38.96-17.24
		S56.81,60.15,46.72,76.46z M63.32,47.18c19.52,11.9,41.06-11.26,41.06-11.26S75.66,32.57,63.32,47.18z M69.12,1.46
		c0,0-23.72,24.48-10.05,45.11C74.14,32.39,69.12,1.46,69.12,1.46z M65.53,266.69c1.31,1.5,2.66,2.97,4.04,4.4
		c-1.15,0.22-2.32,0.41-3.49,0.59c-0.94-0.97-1.87-1.94-2.78-2.94c-9.93-11.15-17.96-24.05-23.75-37.82
		c-5.78-13.85-9.33-28.5-11.11-43.32c-3.54-29.52-1.79-59.91,7-88.38c4.38-14.21,10.45-27.9,18.17-40.59
		C60.57,47.3,68.73,36.62,78.43,27.5c-0.03,0-0.05,0.01-0.08,0.01C78.48,5.45,107.53,0,107.53,0s-4.97,25.83-28.47,27.44
		c-9.72,9.27-17.82,20.15-24.73,31.66C46.9,71.83,41.02,85.49,36.87,99.67c-8.39,28.32-9.8,58.43-6,87.64
		C34.61,216.43,45.94,244.89,65.53,266.69L65.53,266.69z"/>
	<path class="st1" d="M428.71,264.47c0,0-3.1,3.91-8.18,8.18c-2.87,0.18-5.88,0.3-9.01,0.3c-5.99,0-11.72-0.41-17.18-1.21
		C408.93,263.72,428.71,264.47,428.71,264.47z M410.3,253.35c9.32-19.32,41.27-23.74,41.27-23.74S434.72,260.72,410.3,253.35z
		 M429.65,209.51c1.94-21.35,30.35-36.85,30.35-36.85S455.09,207.74,429.65,209.51z M434.84,165.03c-3.45-21.92,21.1-44.7,21.1-44.7
		S459.87,156.76,434.84,165.03z M433.19,119.44c-8.88-18.71,7.12-45.66,7.12-45.66S453.43,105.33,433.19,119.44z M421.62,35.28
		c0,0,17.3,29.43-0.79,46.23C409.49,64.19,421.62,35.28,421.62,35.28z M387.59,270.53c-2.54-0.55-5.01-1.19-7.39-1.92
		c-0.64-0.2-1.33-0.43-1.99-0.65c-4.78-19.7,13.7-40.07,13.7-40.07S396.88,253.45,387.59,270.53z M403.42,197.12
		c0,0,15.32,30.58,4.31,50.22C386.81,230.46,403.42,197.12,403.42,197.12z M407.11,156.65c0,0,23.06,25.12,17.8,47.09
		C400.21,193.26,407.11,156.65,407.11,156.65z M406.33,119.33c0,0,25.17,19.87,23.56,41.02
		C405.35,154.36,406.33,119.33,406.33,119.33z M425.74,113.62c-22.71,2.56-32.64-27.54-32.64-27.54S420.6,95.1,425.74,113.62z
		 M413.28,76.46c-21.09,8.86-38.96-17.24-38.96-17.24S403.19,60.15,413.28,76.46z M396.68,47.18
		c-19.52,11.9-41.06-11.26-41.06-11.26S384.34,32.57,396.68,47.18z M390.88,1.46c0,0,23.72,24.48,10.05,45.11
		C385.86,32.39,390.88,1.46,390.88,1.46z M394.47,266.69c-1.31,1.5-2.66,2.97-4.04,4.4c1.15,0.22,2.32,0.41,3.49,0.59
		c0.94-0.97,1.87-1.94,2.78-2.94c9.93-11.15,17.96-24.05,23.75-37.82c5.78-13.85,9.34-28.5,11.11-43.32
		c3.54-29.52,1.79-59.91-7-88.38c-4.38-14.21-10.44-27.9-18.16-40.59c-6.97-11.33-15.13-22.01-24.83-31.13
		c0.03,0,0.05,0.01,0.08,0.01C381.52,5.45,352.47,0,352.47,0s4.97,25.83,28.48,27.44c9.71,9.27,17.82,20.15,24.72,31.66
		c7.43,12.73,13.31,26.39,17.46,40.57c8.39,28.32,9.8,58.43,6,87.64C425.39,216.43,414.06,244.89,394.47,266.69L394.47,266.69z"/>
	<path class="st1" d="M20.31,426.67h3.95c1.19,0,2.23-0.14,3.11-0.45c0.89-0.29,1.62-0.71,2.18-1.23c0.58-0.53,1.01-1.16,1.3-1.89
		c0.28-0.73,0.42-1.52,0.42-2.39c0-1.74-0.57-3.07-1.72-4c-1.13-0.93-2.86-1.4-5.19-1.4h-4.05L20.31,426.67L20.31,426.67z
		 M20.31,431.24v13.38h-6.32v-34.23h10.37c2.32,0,4.3,0.24,5.94,0.73c1.67,0.47,3.02,1.14,4.07,2.01c1.07,0.87,1.84,1.91,2.33,3.13
		c0.5,1.2,0.75,2.52,0.75,3.97c0,1.16-0.17,2.25-0.52,3.27c-0.33,1.03-0.81,1.96-1.45,2.8c-0.63,0.83-1.41,1.57-2.35,2.2
		c-0.93,0.63-1.99,1.14-3.18,1.51c0.8,0.46,1.49,1.12,2.07,1.97l8.51,12.64h-5.69c-0.55,0-1.02-0.11-1.41-0.33
		c-0.37-0.22-0.7-0.54-0.96-0.95l-7.15-10.96c-0.27-0.41-0.56-0.7-0.89-0.88c-0.32-0.17-0.79-0.26-1.41-0.26L20.31,431.24
		L20.31,431.24z"/>
	<polygon class="st1" points="65.98,410.38 65.98,415.45 50.91,415.45 50.91,424.95 62.78,424.95 62.78,429.85 50.91,429.85 
		50.91,439.53 65.98,439.53 65.98,444.62 44.54,444.62 44.54,410.38 	"/>
	<path class="st1" d="M89.67,416.61c-0.18,0.35-0.38,0.59-0.61,0.74c-0.22,0.14-0.49,0.21-0.8,0.21c-0.32,0-0.67-0.12-1.06-0.36
		c-0.39-0.25-0.86-0.52-1.39-0.82c-0.53-0.3-1.16-0.57-1.88-0.81c-0.7-0.25-1.54-0.38-2.51-0.38c-0.88,0-1.65,0.11-2.31,0.33
		c-0.64,0.21-1.19,0.5-1.64,0.88c-0.44,0.38-0.77,0.84-0.99,1.37c-0.22,0.52-0.33,1.1-0.33,1.73c0,0.81,0.22,1.48,0.66,2.01
		c0.45,0.54,1.05,1,1.78,1.38c0.74,0.37,1.58,0.72,2.52,1.02c0.94,0.29,1.9,0.62,2.87,0.97c0.99,0.33,1.95,0.72,2.89,1.18
		c0.94,0.44,1.78,1.01,2.51,1.7c0.74,0.68,1.33,1.52,1.77,2.51c0.45,1,0.68,2.21,0.68,3.63c0,1.54-0.27,2.99-0.8,4.35
		c-0.52,1.34-1.28,2.52-2.3,3.53c-1.01,0.99-2.24,1.78-3.69,2.37c-1.46,0.57-3.13,0.85-5.01,0.85c-1.08,0-2.15-0.11-3.2-0.33
		c-1.05-0.21-2.06-0.51-3.03-0.9c-0.96-0.4-1.86-0.87-2.7-1.42c-0.83-0.55-1.58-1.17-2.24-1.85l1.84-3.05
		c0.17-0.22,0.37-0.4,0.61-0.55c0.25-0.16,0.52-0.23,0.82-0.23c0.39,0,0.82,0.16,1.27,0.49c0.45,0.32,0.99,0.67,1.6,1.07
		c0.62,0.39,1.35,0.76,2.18,1.09c0.85,0.31,1.86,0.47,3.04,0.47c1.8,0,3.19-0.42,4.18-1.28c0.99-0.87,1.48-2.11,1.48-3.71
		c0-0.9-0.23-1.64-0.68-2.21c-0.44-0.56-1.03-1.04-1.76-1.42c-0.74-0.39-1.58-0.72-2.52-0.99c-0.94-0.27-1.89-0.56-2.87-0.88
		c-0.97-0.31-1.92-0.69-2.86-1.13c-0.94-0.45-1.78-1.02-2.52-1.73c-0.74-0.71-1.33-1.6-1.79-2.65c-0.44-1.08-0.65-2.4-0.65-3.96
		c0-1.24,0.24-2.46,0.72-3.64c0.51-1.19,1.23-2.24,2.17-3.15c0.95-0.92,2.12-1.65,3.5-2.2c1.38-0.56,2.95-0.83,4.73-0.83
		c2,0,3.85,0.31,5.54,0.94c1.7,0.64,3.14,1.52,4.33,2.66L89.67,416.61L89.67,416.61z"/>
	<polygon class="st1" points="118.14,410.38 118.14,415.45 103.07,415.45 103.07,424.95 114.95,424.95 114.95,429.85 103.07,429.85 
		103.07,439.53 118.14,439.53 118.14,444.62 96.7,444.62 96.7,410.38 	"/>
	<path class="st1" d="M131.48,431.69h10.84l-4.14-11.38c-0.18-0.51-0.4-1.1-0.63-1.78c-0.22-0.69-0.44-1.44-0.66-2.25
		c-0.22,0.81-0.44,1.56-0.66,2.25c-0.2,0.7-0.4,1.3-0.61,1.82L131.48,431.69L131.48,431.69z M153.49,444.62h-4.89
		c-0.55,0-1.01-0.13-1.37-0.4c-0.34-0.29-0.59-0.63-0.75-1.04l-2.54-6.99h-14.08l-2.54,6.99c-0.12,0.36-0.37,0.69-0.75,0.99
		c-0.36,0.3-0.81,0.45-1.34,0.45h-4.91l13.35-34.23h6.46L153.49,444.62L153.49,444.62z"/>
	<path class="st1" d="M163.57,426.67h3.95c1.19,0,2.22-0.14,3.1-0.45c0.9-0.29,1.63-0.71,2.19-1.23c0.58-0.53,1.01-1.16,1.29-1.89
		s0.43-1.52,0.43-2.39c0-1.74-0.58-3.07-1.72-4c-1.13-0.93-2.86-1.4-5.2-1.4h-4.04V426.67L163.57,426.67z M163.57,431.24v13.38
		h-6.32v-34.23h10.36c2.32,0,4.31,0.24,5.95,0.73c1.66,0.47,3.02,1.14,4.07,2.01c1.07,0.87,1.84,1.91,2.33,3.13
		c0.5,1.2,0.75,2.52,0.75,3.97c0,1.16-0.17,2.25-0.52,3.27c-0.33,1.03-0.81,1.96-1.46,2.8c-0.62,0.83-1.41,1.57-2.35,2.2
		c-0.92,0.63-1.98,1.14-3.17,1.51c0.8,0.46,1.49,1.12,2.07,1.97l8.51,12.64h-5.69c-0.55,0-1.02-0.11-1.41-0.33
		c-0.38-0.22-0.7-0.54-0.96-0.95l-7.15-10.96c-0.27-0.41-0.57-0.7-0.9-0.88c-0.31-0.17-0.78-0.26-1.41-0.26L163.57,431.24
		L163.57,431.24z"/>
	<path class="st1" d="M210.06,436.55c0.35,0,0.65,0.13,0.9,0.4l2.49,2.72c-1.38,1.72-3.08,3.04-5.1,3.96
		c-2.01,0.91-4.42,1.37-7.24,1.37c-2.53,0-4.8-0.44-6.82-1.3c-2.01-0.87-3.72-2.08-5.15-3.62c-1.42-1.55-2.52-3.4-3.29-5.55
		c-0.75-2.14-1.13-4.48-1.13-7.03c0-2.57,0.43-4.92,1.27-7.05c0.85-2.15,2.04-3.99,3.57-5.54c1.54-1.55,3.37-2.75,5.51-3.6
		c2.14-0.87,4.51-1.3,7.09-1.3c2.53,0,4.73,0.41,6.61,1.23c1.9,0.8,3.52,1.88,4.87,3.22l-2.12,2.96c-0.12,0.19-0.29,0.35-0.49,0.49
		c-0.19,0.15-0.46,0.22-0.8,0.22c-0.36,0-0.73-0.14-1.1-0.43c-0.38-0.28-0.86-0.59-1.44-0.92c-0.58-0.33-1.32-0.64-2.21-0.92
		c-0.88-0.29-2-0.43-3.36-0.43c-1.6,0-3.07,0.28-4.42,0.85c-1.33,0.55-2.49,1.35-3.46,2.39c-0.95,1.04-1.71,2.31-2.26,3.81
		c-0.53,1.49-0.79,3.16-0.79,5.02c0,1.93,0.26,3.64,0.79,5.14c0.55,1.5,1.29,2.76,2.21,3.79c0.93,1.03,2.02,1.81,3.27,2.37
		c1.26,0.53,2.6,0.8,4.05,0.8c0.86,0,1.64-0.05,2.32-0.14c0.71-0.1,1.35-0.25,1.93-0.45c0.6-0.21,1.15-0.47,1.67-0.78
		c0.54-0.33,1.06-0.74,1.58-1.21c0.15-0.14,0.32-0.25,0.49-0.33C209.67,436.59,209.86,436.55,210.06,436.55L210.06,436.55z"/>
	<polygon class="st1" points="246.88,444.62 240.5,444.62 240.5,429.66 224.57,429.66 224.57,444.62 218.19,444.62 218.19,410.39 
		224.57,410.39 224.57,425.11 240.5,425.11 240.5,410.39 246.88,410.39 	"/>
	<path class="st1" d="M286.19,436.55c0.35,0,0.64,0.13,0.9,0.4l2.49,2.72c-1.38,1.72-3.08,3.04-5.1,3.96
		c-2.01,0.91-4.42,1.37-7.25,1.37c-2.52,0-4.79-0.44-6.81-1.3c-2.01-0.87-3.73-2.08-5.15-3.62c-1.43-1.55-2.52-3.4-3.29-5.55
		c-0.75-2.14-1.13-4.48-1.13-7.03c0-2.57,0.42-4.92,1.27-7.05c0.84-2.15,2.04-3.99,3.57-5.54c1.54-1.55,3.37-2.75,5.5-3.6
		c2.15-0.87,4.52-1.3,7.1-1.3c2.53,0,4.73,0.41,6.61,1.23c1.9,0.8,3.52,1.88,4.87,3.22l-2.12,2.96c-0.12,0.19-0.29,0.35-0.49,0.49
		c-0.19,0.15-0.46,0.22-0.8,0.22c-0.36,0-0.73-0.14-1.11-0.43c-0.37-0.28-0.85-0.59-1.43-0.92c-0.58-0.33-1.32-0.64-2.21-0.92
		c-0.88-0.29-2-0.43-3.36-0.43c-1.6,0-3.08,0.28-4.42,0.85c-1.33,0.55-2.49,1.35-3.46,2.39c-0.96,1.04-1.71,2.31-2.26,3.81
		c-0.53,1.49-0.79,3.16-0.79,5.02c0,1.93,0.26,3.64,0.79,5.14c0.55,1.5,1.29,2.76,2.21,3.79c0.93,1.03,2.02,1.81,3.27,2.37
		c1.26,0.53,2.6,0.8,4.05,0.8c0.86,0,1.63-0.05,2.32-0.14c0.71-0.1,1.35-0.25,1.93-0.45c0.6-0.21,1.15-0.47,1.67-0.78
		c0.53-0.33,1.06-0.74,1.57-1.21c0.16-0.14,0.33-0.25,0.5-0.33C285.8,436.59,285.99,436.55,286.19,436.55z"/>
	<polygon class="st1" points="315.76,410.38 315.76,415.45 300.7,415.45 300.7,424.95 312.57,424.95 312.57,429.85 300.7,429.85 
		300.7,439.53 315.76,439.53 315.76,444.62 294.32,444.62 294.32,410.38 	"/>
	<path class="st1" d="M324.55,410.38c0.28,0,0.51,0.02,0.7,0.05c0.19,0.02,0.35,0.07,0.49,0.15c0.16,0.06,0.31,0.16,0.45,0.3
		c0.14,0.13,0.3,0.3,0.47,0.52l17.84,22.9c-0.06-0.55-0.11-1.09-0.14-1.61c-0.01-0.54-0.02-1.03-0.02-1.49v-20.82h5.57v34.24h-3.27
		c-0.5,0-0.91-0.08-1.24-0.24s-0.65-0.44-0.97-0.85l-17.77-22.8c0.05,0.51,0.08,1.01,0.09,1.52c0.04,0.49,0.05,0.94,0.05,1.35v21.02
		h-5.57v-34.24L324.55,410.38L324.55,410.38z"/>
	<polygon class="st1" points="380.72,410.38 380.72,415.62 370.5,415.62 370.5,444.62 364.17,444.62 364.17,415.62 353.9,415.62 
		353.9,410.38 	"/>
	<path class="st1" d="M391.31,426.67h3.95c1.19,0,2.23-0.14,3.11-0.45c0.89-0.29,1.62-0.71,2.18-1.23c0.58-0.53,1.01-1.16,1.29-1.89
		c0.29-0.73,0.43-1.52,0.43-2.39c0-1.74-0.57-3.07-1.72-4c-1.13-0.93-2.86-1.4-5.19-1.4h-4.05V426.67L391.31,426.67z M391.31,431.24
		v13.38h-6.32v-34.23h10.37c2.32,0,4.3,0.24,5.94,0.73c1.67,0.47,3.02,1.14,4.07,2.01c1.07,0.87,1.84,1.91,2.33,3.13
		c0.5,1.2,0.75,2.52,0.75,3.97c0,1.16-0.17,2.25-0.52,3.27c-0.32,1.03-0.81,1.96-1.45,2.8c-0.63,0.83-1.41,1.57-2.35,2.2
		c-0.93,0.63-1.99,1.14-3.18,1.51c0.8,0.46,1.49,1.12,2.07,1.97l8.51,12.64h-5.69c-0.55,0-1.02-0.11-1.41-0.33
		c-0.38-0.22-0.7-0.54-0.96-0.95l-7.15-10.96c-0.27-0.41-0.56-0.7-0.89-0.88c-0.32-0.17-0.79-0.26-1.41-0.26L391.31,431.24
		L391.31,431.24z"/>
	<polygon class="st1" points="436.98,410.38 436.98,415.45 421.91,415.45 421.91,424.95 433.78,424.95 433.78,429.85 421.91,429.85 
		421.91,439.53 436.98,439.53 436.98,444.62 415.54,444.62 415.54,410.38 	"/>
	<polygon class="st0" points="28.56,364.43 28.56,367.18 16.68,367.18 16.68,375.46 26.29,375.46 26.29,378.1 16.68,378.1 
		16.68,386.6 28.56,386.6 28.56,389.35 13.31,389.35 13.31,364.43 	"/>
	<polygon class="st0" points="59.1,386.52 69.8,386.52 69.8,389.35 55.75,389.35 55.75,364.43 59.1,364.43 	"/>
	<polygon class="st0" points="99.86,389.35 96.51,389.35 96.51,364.43 99.86,364.43 	"/>
	<path class="st0" d="M146.89,376.9c0-1.53-0.21-2.9-0.62-4.1c-0.41-1.21-1-2.23-1.76-3.07c-0.76-0.83-1.68-1.47-2.76-1.91
		c-1.09-0.44-2.29-0.66-3.61-0.66h-5.89v19.46h5.89c1.32,0,2.52-0.22,3.61-0.66c1.08-0.44,2-1.07,2.76-1.89
		c0.76-0.84,1.35-1.86,1.76-3.07C146.68,379.8,146.89,378.43,146.89,376.9L146.89,376.9z M150.33,376.9c0,1.87-0.3,3.57-0.88,5.1
		c-0.59,1.53-1.42,2.84-2.49,3.93c-1.07,1.08-2.35,1.93-3.85,2.54c-1.5,0.59-3.16,0.88-4.97,0.88h-9.26v-24.92h9.26
		c1.81,0,3.47,0.3,4.97,0.91c1.5,0.59,2.78,1.43,3.85,2.53c1.07,1.09,1.9,2.4,2.49,3.94C150.03,373.33,150.33,375.03,150.33,376.9z"
		/>
	<path class="st0" d="M180.72,380.1h9.24l-3.88-10.14c-0.26-0.62-0.5-1.41-0.75-2.35c-0.12,0.48-0.25,0.92-0.38,1.33
		c-0.11,0.39-0.23,0.74-0.34,1.04L180.72,380.1L180.72,380.1z M196.94,389.35h-2.59c-0.3,0-0.54-0.07-0.73-0.22
		c-0.18-0.16-0.32-0.35-0.41-0.58l-2.32-6.01h-11.1l-2.31,6.01c-0.08,0.21-0.22,0.4-0.42,0.56c-0.19,0.16-0.44,0.24-0.72,0.24h-2.59
		l9.89-24.92h3.4L196.94,389.35L196.94,389.35z"/>
	<path class="st0" d="M254.89,375.6h4.42c0.94,0,1.76-0.11,2.45-0.32c0.69-0.21,1.26-0.5,1.71-0.87c0.46-0.37,0.8-0.81,1.02-1.33
		c0.21-0.54,0.32-1.12,0.32-1.74c0-1.47-0.43-2.54-1.31-3.22c-0.87-0.68-2.23-1.03-4.07-1.03h-4.54V375.6L254.89,375.6z
		 M254.89,377.99v8.68h5.35c0.95,0,1.77-0.11,2.45-0.33c0.69-0.22,1.26-0.52,1.69-0.92c0.45-0.4,0.78-0.88,0.99-1.42
		c0.2-0.56,0.31-1.17,0.31-1.83c0-1.29-0.46-2.3-1.37-3.04c-0.89-0.76-2.26-1.14-4.09-1.14L254.89,377.99L254.89,377.99z
		 M251.54,389.35v-24.92h7.89c1.52,0,2.82,0.15,3.92,0.46c1.1,0.3,2.01,0.73,2.71,1.28c0.71,0.56,1.24,1.24,1.57,2.05
		c0.34,0.8,0.52,1.71,0.52,2.72c0,0.61-0.1,1.2-0.3,1.77c-0.18,0.57-0.47,1.1-0.86,1.58c-0.38,0.49-0.86,0.92-1.45,1.31
		c-0.57,0.38-1.25,0.69-2.04,0.93c1.81,0.36,3.17,1.02,4.09,1.97c0.92,0.95,1.39,2.2,1.39,3.76c0,1.05-0.2,2.01-0.59,2.88
		c-0.38,0.87-0.94,1.62-1.69,2.25c-0.74,0.62-1.65,1.11-2.73,1.46c-1.07,0.33-2.3,0.5-3.68,0.5L251.54,389.35L251.54,389.35z"/>
	<path class="st0" d="M300.41,380.1h9.24l-3.89-10.14c-0.25-0.62-0.5-1.41-0.74-2.35c-0.13,0.48-0.25,0.92-0.38,1.33
		c-0.12,0.39-0.23,0.74-0.34,1.04L300.41,380.1L300.41,380.1z M316.62,389.35h-2.59c-0.3,0-0.54-0.07-0.72-0.22
		c-0.19-0.16-0.33-0.35-0.42-0.58l-2.31-6.01h-11.1l-2.32,6.01c-0.08,0.21-0.22,0.4-0.41,0.56c-0.2,0.16-0.44,0.24-0.73,0.24h-2.59
		l9.9-24.92h3.4L316.62,389.35L316.62,389.35z"/>
	<polygon class="st0" points="362.21,389.35 358.84,389.35 358.84,378.01 345.51,378.01 345.51,389.35 342.14,389.35 342.14,364.43 
		345.51,364.43 345.51,375.54 358.84,375.54 358.84,364.43 362.21,364.43 	"/>
	<polygon class="st0" points="394.62,389.35 391.27,389.35 391.27,364.43 394.62,364.43 	"/>
	<polygon class="st0" points="440.5,364.43 440.5,367.27 432.5,367.27 432.5,389.35 429.15,389.35 429.15,367.27 421.12,367.27 
		421.12,364.43 	"/>
</g>
</svg>
