<svg version="1.1" xmlns="http://www.w3.org/2000/svg" xmlns:xlink="http://www.w3.org/1999/xlink" x="0px" y="0px" width="460px"
	 height="500px" viewBox="0 0 460 500" style="enable-background:new 0 0 460 500;" xml:space="preserve">
<style type="text/css">
	.st0{fill:#FFFFFF;}
</style>
<defs>
</defs>
<g id="svg40_1_">
	<g id="_2931491099696_1_">
		<path class="st0" d="M317.56,161.76h-17.34v80.16c5.89,0.63,11.69,1.68,17.34,3.03V161.76z M191.38,161.76h-17.34v80.45
			c5.99,0.86,11.78,2.33,17.34,4.41V161.76z M275.5,161.76h-17.34v84.97c5.56-2.1,11.34-3.6,17.34-4.48V161.76L275.5,161.76z
			 M233.44,261.25v-99.49H216.1v99.26c3.02,2.48,5.97,5.17,8.81,8.12C227.66,266.28,230.51,263.67,233.44,261.25z M149.32,161.76
			h-17.34v83.25c5.65-1.36,11.45-2.43,17.34-3.07V161.76z M113.68,154.4h15.9h190.38h15.9v-11.15H113.68L113.68,154.4L113.68,154.4z
			 M113.68,139.45h-7.64v-8.77l118.73-43.99l118.74,43.99v8.77h-7.65H113.68L113.68,139.45z"/>
		<path class="st0" d="M384.07,320.51c-17.99-0.11-35.3-4.81-48.81-9.83c-13.88-5.15-25.42-10.39-36.38-10.39
			c-15.06,0-25.19,5.23-31.52,10.39c-4.95,4.05-7.57,8.04-8.42,9.46c-1.54-2.63-4-6.13-7.59-9.46c-4.66-4.32-11.3-8.29-20.31-9.75
			c38.47-41.92,85.3-24.1,119.83-10.94c6.51,2.48,12.64,4.82,18.09,6.49c28.42,8.71,58.48,3.2,68.58,0.89v23.25
			C424.47,320.62,404.17,320.63,384.07,320.51L384.07,320.51z M192.24,320.14c-0.85-1.42-3.47-5.41-8.42-9.46
			c-6.33-5.16-16.46-10.39-31.52-10.39c-10.96,0-22.5,5.25-36.38,10.39c-13.51,5.01-30.82,9.72-48.81,9.83
			c-20.22,0.12-41.48,0.07-55.1,0.04v-23.19c10.1,2.32,40.17,7.83,68.58-0.89c5.44-1.66,11.58-4,18.09-6.48
			c34.61-13.19,81.56-31.07,120.08,11.2c-8.3,1.63-14.51,5.4-18.93,9.49C196.24,314.01,193.78,317.51,192.24,320.14L192.24,320.14z
			 M80.59,268.36c5.44-1.67,11.58-4.01,18.09-6.48c35.65-13.59,84.4-32.14,123.54,15.2v19.76c-40.95-44.19-91.56-24.92-125.49-11.99
			c-6.42,2.45-12.48,4.76-17.74,6.37c-28.14,8.63-58.96,2.38-66.98,0.48v-22.45C22.11,271.57,52.18,277.07,80.59,268.36z
			 M350.87,261.88c6.5,2.47,12.64,4.81,18.08,6.48c28.43,8.71,58.49,3.21,68.59,0.89v22.45c-8.01,1.91-38.8,8.15-66.98-0.48
			c-5.26-1.61-11.32-3.92-17.74-6.37c-33.82-12.89-84.22-32.09-125.1,11.57v-19.79C266.79,229.87,315.33,248.33,350.87,261.88
			L350.87,261.88z"/>
		<path class="st0" d="M31.29,262.8c0,0,3.1,3.89,8.18,8.13c2.87,0.18,5.88,0.3,9.01,0.3c5.99,0,11.72-0.41,17.18-1.2
			C51.08,262.06,31.29,262.8,31.29,262.8L31.29,262.8z M49.7,251.75c-9.31-19.19-41.27-23.59-41.27-23.59S25.28,259.08,49.7,251.75z
			 M30.35,208.19C28.41,186.97,0,171.57,0,171.57S4.91,206.43,30.35,208.19z M25.17,163.99c3.44-21.78-21.11-44.42-21.11-44.42
			S0.13,155.77,25.17,163.99z M26.81,118.69c8.88-18.59-7.12-45.38-7.12-45.38S6.57,104.67,26.81,118.69z M38.38,35.06
			c0,0-17.3,29.24,0.79,45.93C50.51,63.79,38.38,35.06,38.38,35.06z M72.42,268.82c2.53-0.54,5-1.18,7.38-1.91
			c0.64-0.19,1.33-0.43,1.99-0.64c4.78-19.58-13.7-39.81-13.7-39.81S63.12,251.85,72.42,268.82L72.42,268.82z M56.58,195.87
			c0,0-15.32,30.39-4.31,49.91C73.2,229,56.58,195.87,56.58,195.87z M52.89,155.66c0,0-23.06,24.96-17.8,46.8
			C59.79,192.04,52.89,155.66,52.89,155.66z M53.67,118.57c0,0-25.17,19.75-23.56,40.77C54.65,153.39,53.67,118.57,53.67,118.57z
			 M34.26,112.9c22.71,2.55,32.65-27.37,32.65-27.37S39.4,94.5,34.26,112.9z M46.72,75.98c21.09,8.8,38.96-17.13,38.96-17.13
			S56.81,59.77,46.72,75.98z M63.32,46.89c19.52,11.82,41.06-11.19,41.06-11.19S75.66,32.36,63.32,46.89z M69.12,1.46
			c0,0-23.72,24.31-10.05,44.81C74.14,32.19,69.12,1.46,69.12,1.46z M65.53,265.01c1.31,1.49,2.66,2.94,4.04,4.37
			c-1.15,0.22-2.32,0.41-3.49,0.58c-0.94-0.96-1.87-1.92-2.78-2.91c-9.93-11.09-17.96-23.9-23.75-37.58
			c-5.78-13.77-9.33-28.32-11.11-43.05c-3.54-29.34-1.79-59.54,7-87.83c4.38-14.12,10.45-27.72,18.17-40.33
			C60.57,47,68.73,36.39,78.43,27.33c-0.03,0-0.05,0.01-0.08,0.01C78.48,5.41,107.53,0,107.53,0s-4.97,25.67-28.47,27.26
			c-9.72,9.22-17.82,20.02-24.73,31.47C46.9,71.38,41.02,84.95,36.87,99.04c-8.39,28.14-9.8,58.06-6,87.09
			C34.61,215.06,45.94,243.34,65.53,265.01L65.53,265.01z"/>
		<path class="st0" d="M428.71,262.8c0,0-3.1,3.89-8.18,8.13c-2.87,0.18-5.88,0.3-9.01,0.3c-5.99,0-11.72-0.41-17.18-1.2
			C408.92,262.06,428.71,262.8,428.71,262.8L428.71,262.8z M410.3,251.75c9.32-19.19,41.27-23.59,41.27-23.59
			S434.72,259.08,410.3,251.75z M429.65,208.19c1.94-21.22,30.35-36.62,30.35-36.62S455.09,206.43,429.65,208.19z M434.83,163.99
			c-3.44-21.78,21.11-44.42,21.11-44.42S459.87,155.77,434.83,163.99L434.83,163.99z M433.19,118.69
			c-8.88-18.59,7.12-45.38,7.12-45.38S453.42,104.67,433.19,118.69z M421.62,35.06c0,0,17.3,29.24-0.79,45.93
			C409.49,63.79,421.62,35.06,421.62,35.06z M387.58,268.82c-2.53-0.54-5-1.18-7.38-1.91c-0.64-0.19-1.33-0.43-1.99-0.64
			c-4.78-19.58,13.7-39.81,13.7-39.81S396.88,251.85,387.58,268.82L387.58,268.82z M403.42,195.87c0,0,15.32,30.39,4.31,49.91
			C386.8,229,403.42,195.87,403.42,195.87z M407.11,155.66c0,0,23.06,24.96,17.8,46.8C400.21,192.04,407.11,155.66,407.11,155.66z
			 M406.33,118.57c0,0,25.17,19.75,23.56,40.77C405.35,153.39,406.33,118.57,406.33,118.57z M425.74,112.9
			c-22.71,2.55-32.65-27.37-32.65-27.37S420.6,94.5,425.74,112.9z M413.28,75.98c-21.09,8.8-38.96-17.13-38.96-17.13
			S403.19,59.77,413.28,75.98z M396.68,46.89c-19.52,11.82-41.06-11.19-41.06-11.19S384.34,32.36,396.68,46.89z M390.88,1.46
			c0,0,23.72,24.31,10.05,44.81C385.86,32.19,390.88,1.46,390.88,1.46z M394.47,265.01c-1.31,1.49-2.66,2.94-4.04,4.37
			c1.15,0.22,2.32,0.41,3.49,0.58c0.94-0.96,1.87-1.92,2.78-2.91c9.93-11.09,17.96-23.9,23.75-37.58
			c5.78-13.77,9.33-28.32,11.11-43.05c3.54-29.34,1.79-59.54-7-87.83c-4.38-14.12-10.44-27.72-18.17-40.33
			c-6.96-11.26-15.12-21.87-24.82-30.93c0.03,0,0.05,0.01,0.08,0.01C381.52,5.41,352.47,0,352.47,0s4.97,25.67,28.47,27.26
			c9.72,9.22,17.83,20.02,24.73,31.47c7.43,12.65,13.31,26.22,17.46,40.31c8.39,28.14,9.8,58.06,6,87.09
			C425.39,215.06,414.06,243.34,394.47,265.01L394.47,265.01z"/>
		<g>
			<polygon class="st0" points="27.28,412.92 27.28,415.65 15.38,415.65 15.38,423.87 25.01,423.87 25.01,426.5 15.38,426.5 
				15.38,434.95 27.28,434.95 27.28,437.68 12.01,437.68 12.01,412.92 			"/>
			<polygon class="st0" points="57.64,434.86 68.36,434.86 68.36,437.68 54.28,437.68 54.28,412.92 57.64,412.92 			"/>
			<polygon class="st0" points="98.23,437.68 94.88,437.68 94.88,412.92 98.23,412.92 			"/>
			<path class="st0" d="M145.1,425.31c0-1.52-0.2-2.88-0.62-4.08c-0.41-1.2-1-2.21-1.76-3.04c-0.76-0.83-1.69-1.46-2.77-1.9
				s-2.29-0.65-3.61-0.65h-5.9v19.33h5.9c1.32,0,2.53-0.22,3.61-0.66s2.01-1.06,2.77-1.88c0.76-0.83,1.35-1.84,1.76-3.04
				C144.9,428.19,145.1,426.83,145.1,425.31z M148.54,425.31c0,1.86-0.29,3.54-0.88,5.06c-0.59,1.52-1.42,2.82-2.49,3.91
				c-1.07,1.08-2.35,1.92-3.85,2.52c-1.5,0.59-3.16,0.88-4.98,0.88h-9.27v-24.76h9.27c1.82,0,3.48,0.3,4.98,0.9
				c1.5,0.59,2.78,1.43,3.85,2.52c1.07,1.08,1.9,2.39,2.49,3.91C148.25,421.77,148.54,423.45,148.54,425.31L148.54,425.31z"/>
			<path class="st0" d="M178.76,428.49h9.25l-3.89-10.07c-0.26-0.63-0.51-1.4-0.75-2.34c-0.12,0.48-0.25,0.91-0.38,1.32
				c-0.11,0.39-0.23,0.73-0.34,1.03L178.76,428.49z M194.99,437.68h-2.59c-0.3,0-0.54-0.07-0.73-0.22
				c-0.18-0.15-0.32-0.34-0.41-0.57l-2.32-5.98h-11.12l-2.31,5.98c-0.08,0.2-0.22,0.39-0.42,0.55c-0.19,0.16-0.44,0.24-0.72,0.24
				h-2.6l9.91-24.76h3.4L194.99,437.68L194.99,437.68z"/>
			<path class="st0" d="M252.57,424.01H257c0.94,0,1.76-0.1,2.45-0.31c0.7-0.2,1.27-0.49,1.72-0.86c0.46-0.37,0.8-0.81,1.02-1.33
				c0.21-0.53,0.33-1.11,0.33-1.73c0-1.45-0.44-2.52-1.32-3.2c-0.87-0.68-2.23-1.02-4.08-1.02h-4.55L252.57,424.01L252.57,424.01z
				 M252.57,426.4v8.62h5.36c0.96,0,1.78-0.11,2.46-0.33c0.69-0.22,1.26-0.52,1.69-0.91c0.45-0.41,0.78-0.88,0.99-1.42
				c0.21-0.55,0.31-1.16,0.31-1.82c0-1.27-0.46-2.28-1.36-3.02c-0.9-0.75-2.27-1.12-4.1-1.12H252.57L252.57,426.4z M249.22,437.68
				v-24.76h7.9c1.52,0,2.83,0.15,3.93,0.45c1.1,0.3,2.01,0.73,2.71,1.28c0.72,0.55,1.24,1.23,1.57,2.04
				c0.35,0.79,0.52,1.69,0.52,2.69c0,0.61-0.1,1.2-0.29,1.77c-0.19,0.56-0.47,1.08-0.87,1.57c-0.38,0.48-0.86,0.91-1.45,1.29
				c-0.57,0.38-1.25,0.7-2.04,0.94c1.81,0.35,3.18,1,4.1,1.95c0.92,0.94,1.38,2.19,1.38,3.73c0,1.05-0.19,2.01-0.59,2.87
				c-0.38,0.86-0.94,1.61-1.69,2.23c-0.74,0.62-1.65,1.11-2.73,1.45c-1.07,0.33-2.3,0.5-3.68,0.5L249.22,437.68L249.22,437.68z"/>
			<path class="st0" d="M297.93,428.49h9.26l-3.89-10.07c-0.26-0.63-0.51-1.4-0.75-2.34c-0.12,0.48-0.25,0.91-0.38,1.32
				c-0.11,0.39-0.23,0.73-0.34,1.03L297.93,428.49z M314.17,437.68h-2.59c-0.3,0-0.55-0.07-0.73-0.22
				c-0.18-0.15-0.32-0.34-0.41-0.57l-2.32-5.98H297l-2.32,5.98c-0.08,0.2-0.21,0.39-0.41,0.55c-0.2,0.16-0.44,0.24-0.73,0.24h-2.59
				l9.91-24.76h3.4L314.17,437.68L314.17,437.68z"/>
			<polygon class="st0" points="359.59,437.68 356.22,437.68 356.22,426.42 342.87,426.42 342.87,437.68 339.5,437.68 339.5,412.92 
				342.87,412.92 342.87,423.96 356.22,423.96 356.22,412.92 359.59,412.92 			"/>
			<polygon class="st0" points="391.83,437.68 388.47,437.68 388.47,412.92 391.83,412.92 			"/>
			<polygon class="st0" points="437.54,412.92 437.54,415.74 429.53,415.74 429.53,437.68 426.18,437.68 426.18,415.74 
				418.14,415.74 418.14,412.92 			"/>
		</g>
		<g>
			<path class="st0" d="M18.37,481.76h3.98c1.19,0,2.23-0.15,3.12-0.44c0.9-0.3,1.63-0.71,2.2-1.23c0.58-0.53,1.01-1.16,1.3-1.88
				c0.28-0.73,0.42-1.52,0.42-2.38c0-1.73-0.57-3.06-1.72-3.99c-1.14-0.92-2.88-1.39-5.23-1.39h-4.07L18.37,481.76L18.37,481.76z
				 M18.37,486.31v13.31h-6.36v-34.07h10.43c2.33,0,4.33,0.25,5.98,0.73c1.68,0.47,3.04,1.14,4.09,2.01
				c1.08,0.86,1.86,1.9,2.35,3.11c0.5,1.19,0.75,2.51,0.75,3.95c0,1.15-0.17,2.23-0.52,3.26c-0.33,1.02-0.82,1.94-1.46,2.78
				c-0.63,0.83-1.42,1.56-2.37,2.19c-0.93,0.63-1.99,1.13-3.19,1.51c0.8,0.45,1.5,1.1,2.08,1.95l8.56,12.58h-5.72
				c-0.55,0-1.03-0.11-1.42-0.33c-0.38-0.22-0.7-0.53-0.97-0.94l-7.19-10.91c-0.27-0.41-0.57-0.7-0.9-0.87
				c-0.31-0.17-0.79-0.26-1.42-0.26L18.37,486.31L18.37,486.31z"/>
			<polygon class="st0" points="64.31,465.55 64.31,470.59 49.15,470.59 49.15,480.04 61.1,480.04 61.1,484.92 49.15,484.92 
				49.15,494.56 64.31,494.56 64.31,499.62 42.75,499.62 42.75,465.55 			"/>
			<path class="st0" d="M88.14,471.75c-0.17,0.34-0.37,0.59-0.61,0.73c-0.22,0.14-0.49,0.21-0.81,0.21c-0.31,0-0.67-0.12-1.06-0.35
				c-0.39-0.25-0.86-0.53-1.4-0.83c-0.53-0.29-1.16-0.56-1.89-0.8c-0.71-0.25-1.55-0.37-2.53-0.37c-0.88,0-1.65,0.11-2.32,0.33
				c-0.64,0.2-1.19,0.49-1.65,0.87c-0.44,0.37-0.77,0.83-1,1.36c-0.21,0.52-0.33,1.09-0.33,1.72c0,0.81,0.23,1.47,0.67,2.01
				c0.45,0.53,1.05,0.99,1.79,1.36c0.74,0.38,1.59,0.72,2.53,1.02c0.95,0.29,1.91,0.62,2.89,0.96c0.99,0.33,1.96,0.72,2.91,1.18
				c0.94,0.44,1.79,1.01,2.53,1.7c0.74,0.67,1.33,1.5,1.77,2.49c0.46,1,0.69,2.19,0.69,3.61c0,1.54-0.27,2.98-0.81,4.33
				c-0.52,1.34-1.29,2.51-2.31,3.51c-1.01,0.99-2.25,1.78-3.72,2.36c-1.46,0.56-3.14,0.85-5.03,0.85c-1.09,0-2.16-0.11-3.22-0.33
				c-1.06-0.21-2.07-0.5-3.05-0.9c-0.96-0.39-1.87-0.86-2.72-1.41c-0.84-0.55-1.59-1.16-2.25-1.84l1.85-3.04
				c0.17-0.22,0.38-0.4,0.61-0.54c0.25-0.16,0.53-0.24,0.83-0.24c0.39,0,0.82,0.17,1.28,0.5c0.46,0.31,0.99,0.67,1.61,1.06
				c0.63,0.39,1.36,0.75,2.19,1.08c0.86,0.32,1.87,0.48,3.06,0.48c1.81,0,3.21-0.43,4.21-1.28c0.99-0.86,1.49-2.09,1.49-3.69
				c0-0.9-0.23-1.63-0.69-2.2c-0.44-0.56-1.03-1.03-1.77-1.41c-0.75-0.39-1.59-0.72-2.53-0.99c-0.95-0.27-1.91-0.56-2.89-0.87
				c-0.98-0.32-1.94-0.69-2.89-1.13c-0.94-0.44-1.78-1.02-2.53-1.72c-0.74-0.71-1.34-1.59-1.79-2.64c-0.44-1.07-0.67-2.38-0.67-3.94
				c0-1.24,0.25-2.45,0.74-3.62c0.5-1.18,1.23-2.23,2.17-3.14c0.96-0.91,2.14-1.64,3.53-2.19c1.38-0.55,2.97-0.83,4.75-0.83
				c2.02,0,3.88,0.32,5.58,0.95c1.71,0.63,3.15,1.51,4.35,2.64L88.14,471.75L88.14,471.75z"/>
			<polygon class="st0" points="116.79,465.55 116.79,470.59 101.63,470.59 101.63,480.04 113.57,480.04 113.57,484.92 
				101.63,484.92 101.63,494.56 116.79,494.56 116.79,499.62 95.22,499.62 95.22,465.55 			"/>
			<path class="st0" d="M130.21,486.76h10.9l-4.16-11.33c-0.19-0.51-0.4-1.1-0.64-1.77c-0.22-0.69-0.44-1.44-0.66-2.24
				c-0.22,0.8-0.44,1.55-0.66,2.24c-0.21,0.69-0.41,1.3-0.62,1.81L130.21,486.76L130.21,486.76z M152.35,499.62h-4.92
				c-0.55,0-1.01-0.13-1.37-0.4c-0.35-0.28-0.6-0.63-0.76-1.03l-2.56-6.96h-14.16l-2.55,6.96c-0.13,0.36-0.38,0.68-0.76,0.98
				c-0.37,0.3-0.81,0.45-1.35,0.45h-4.94l13.43-34.07h6.5L152.35,499.62L152.35,499.62z"/>
			<path class="st0" d="M162.49,481.76h3.97c1.2,0,2.24-0.15,3.12-0.44c0.9-0.3,1.64-0.71,2.2-1.23c0.59-0.53,1.02-1.16,1.3-1.88
				c0.29-0.73,0.43-1.52,0.43-2.38c0-1.73-0.58-3.06-1.73-3.99c-1.13-0.92-2.87-1.39-5.22-1.39h-4.07L162.49,481.76L162.49,481.76z
				 M162.49,486.31v13.31h-6.36v-34.07h10.43c2.33,0,4.32,0.25,5.98,0.73c1.67,0.47,3.03,1.14,4.09,2.01
				c1.07,0.86,1.85,1.9,2.34,3.11c0.51,1.19,0.76,2.51,0.76,3.95c0,1.15-0.17,2.23-0.52,3.26c-0.33,1.02-0.82,1.94-1.47,2.78
				c-0.63,0.83-1.42,1.56-2.36,2.19c-0.93,0.63-2,1.13-3.19,1.51c0.8,0.45,1.49,1.1,2.08,1.95l8.56,12.58h-5.73
				c-0.55,0-1.02-0.11-1.41-0.33c-0.38-0.22-0.71-0.53-0.97-0.94l-7.19-10.91c-0.27-0.41-0.57-0.7-0.9-0.87
				c-0.32-0.17-0.79-0.26-1.42-0.26L162.49,486.31L162.49,486.31z"/>
			<path class="st0" d="M209.26,491.59c0.35,0,0.65,0.13,0.9,0.4l2.51,2.71c-1.39,1.71-3.1,3.02-5.13,3.93
				c-2.02,0.91-4.45,1.37-7.29,1.37c-2.54,0-4.82-0.43-6.86-1.3c-2.02-0.86-3.74-2.06-5.18-3.6c-1.43-1.54-2.54-3.38-3.31-5.52
				c-0.76-2.13-1.13-4.46-1.13-6.99c0-2.56,0.42-4.9,1.27-7.02c0.86-2.14,2.05-3.98,3.6-5.52c1.54-1.54,3.39-2.73,5.53-3.58
				c2.16-0.86,4.54-1.3,7.15-1.3c2.53,0,4.75,0.41,6.64,1.23c1.91,0.8,3.54,1.87,4.9,3.21l-2.13,2.94c-0.13,0.19-0.29,0.35-0.5,0.5
				c-0.19,0.14-0.46,0.21-0.8,0.21c-0.37,0-0.74-0.15-1.12-0.43c-0.37-0.28-0.85-0.59-1.44-0.92c-0.58-0.33-1.32-0.63-2.22-0.91
				c-0.88-0.29-2.01-0.43-3.38-0.43c-1.61,0-3.09,0.28-4.45,0.85c-1.34,0.55-2.5,1.34-3.47,2.38s-1.72,2.3-2.27,3.79
				c-0.54,1.48-0.81,3.15-0.81,5c0,1.91,0.27,3.62,0.81,5.11c0.55,1.49,1.29,2.75,2.22,3.77c0.93,1.02,2.02,1.81,3.29,2.36
				c1.26,0.53,2.61,0.8,4.06,0.8c0.87,0,1.65-0.05,2.35-0.14c0.71-0.1,1.35-0.25,1.93-0.45c0.6-0.21,1.16-0.46,1.68-0.78
				c0.54-0.33,1.07-0.73,1.59-1.2c0.16-0.14,0.32-0.25,0.49-0.33C208.87,491.63,209.06,491.59,209.26,491.59L209.26,491.59z"/>
			<polygon class="st0" points="246.29,499.62 239.89,499.62 239.89,484.73 223.85,484.73 223.85,499.62 217.44,499.62 
				217.44,465.55 223.85,465.55 223.85,480.21 239.89,480.21 239.89,465.55 246.29,465.55 			"/>
			<path class="st0" d="M285.85,491.59c0.34,0,0.64,0.13,0.9,0.4l2.5,2.71c-1.39,1.71-3.1,3.02-5.13,3.93
				c-2.02,0.91-4.45,1.37-7.28,1.37c-2.54,0-4.83-0.43-6.86-1.3c-2.02-0.86-3.75-2.06-5.18-3.6c-1.44-1.54-2.54-3.38-3.31-5.52
				c-0.76-2.13-1.14-4.46-1.14-6.99c0-2.56,0.43-4.9,1.28-7.02c0.85-2.14,2.05-3.98,3.59-5.52c1.55-1.54,3.39-2.73,5.54-3.58
				c2.16-0.86,4.54-1.3,7.14-1.3c2.54,0,4.75,0.41,6.65,1.23c1.9,0.8,3.54,1.87,4.89,3.21l-2.13,2.94c-0.12,0.19-0.29,0.35-0.49,0.5
				c-0.19,0.14-0.46,0.21-0.81,0.21c-0.36,0-0.73-0.15-1.11-0.43c-0.38-0.28-0.86-0.59-1.44-0.92c-0.59-0.33-1.33-0.63-2.22-0.91
				c-0.89-0.29-2.02-0.43-3.39-0.43c-1.61,0-3.09,0.28-4.44,0.85c-1.34,0.55-2.5,1.34-3.48,2.38c-0.96,1.04-1.72,2.3-2.27,3.79
				c-0.54,1.48-0.8,3.15-0.8,5c0,1.91,0.26,3.62,0.8,5.11c0.55,1.49,1.29,2.75,2.22,3.77s2.03,1.81,3.29,2.36
				c1.26,0.53,2.62,0.8,4.07,0.8c0.87,0,1.64-0.05,2.34-0.14c0.71-0.1,1.36-0.25,1.94-0.45c0.6-0.21,1.16-0.46,1.68-0.78
				c0.53-0.33,1.06-0.73,1.58-1.2c0.16-0.14,0.33-0.25,0.5-0.33C285.45,491.63,285.64,491.59,285.85,491.59L285.85,491.59z"/>
			<polygon class="st0" points="315.59,465.55 315.59,470.59 300.43,470.59 300.43,480.04 312.38,480.04 312.38,484.92 
				300.43,484.92 300.43,494.56 315.59,494.56 315.59,499.62 294.03,499.62 294.03,465.55 			"/>
			<path class="st0" d="M324.43,465.55c0.28,0,0.52,0.02,0.71,0.05c0.19,0.02,0.35,0.06,0.5,0.14c0.15,0.07,0.3,0.17,0.45,0.31
				c0.14,0.12,0.29,0.3,0.47,0.52l17.95,22.78c-0.06-0.55-0.11-1.08-0.14-1.6c-0.02-0.54-0.03-1.03-0.03-1.49v-20.71h5.61v34.07
				h-3.29c-0.51,0-0.92-0.08-1.25-0.23c-0.33-0.16-0.66-0.44-0.97-0.85l-17.88-22.69c0.04,0.5,0.08,1,0.09,1.51
				c0.03,0.48,0.05,0.93,0.05,1.34v20.92h-5.6v-34.07H324.43L324.43,465.55z"/>
			<polygon class="st0" points="380.94,465.55 380.94,470.76 370.66,470.76 370.66,499.62 364.3,499.62 364.3,470.76 353.96,470.76 
				353.96,465.55 			"/>
			<path class="st0" d="M391.6,481.76h3.97c1.2,0,2.24-0.15,3.12-0.44c0.9-0.3,1.63-0.71,2.2-1.23c0.58-0.53,1.02-1.16,1.3-1.88
				c0.29-0.73,0.43-1.52,0.43-2.38c0-1.73-0.58-3.06-1.73-3.99c-1.13-0.92-2.88-1.39-5.22-1.39h-4.07L391.6,481.76L391.6,481.76z
				 M391.6,486.31v13.31h-6.37v-34.07h10.44c2.33,0,4.32,0.25,5.98,0.73c1.67,0.47,3.03,1.14,4.09,2.01
				c1.07,0.86,1.85,1.9,2.34,3.11c0.51,1.19,0.76,2.51,0.76,3.95c0,1.15-0.17,2.23-0.52,3.26c-0.33,1.02-0.82,1.94-1.47,2.78
				c-0.63,0.83-1.42,1.56-2.36,2.19c-0.93,0.63-2,1.13-3.19,1.51c0.8,0.45,1.49,1.1,2.07,1.95l8.56,12.58h-5.72
				c-0.55,0-1.02-0.11-1.42-0.33c-0.38-0.22-0.7-0.53-0.97-0.94l-7.19-10.91c-0.26-0.41-0.56-0.7-0.89-0.87
				c-0.32-0.17-0.79-0.26-1.42-0.26L391.6,486.31L391.6,486.31z"/>
			<polygon class="st0" points="437.54,465.55 437.54,470.59 422.38,470.59 422.38,480.04 434.32,480.04 434.32,484.92 
				422.38,484.92 422.38,494.56 437.54,494.56 437.54,499.62 415.97,499.62 415.97,465.55 			"/>
		</g>
	</g>
</g>
</svg>
