<svg version="1.1" xmlns="http://www.w3.org/2000/svg" xmlns:xlink="http://www.w3.org/1999/xlink" x="0px" y="0px" width="15px"
	 height="15px" viewBox="0 0 15 15" style="enable-background:new 0 0 15 15;" xml:space="preserve">
<style type="text/css">
	.st0{fill:none;}
	.st1{fill-rule:evenodd;clip-rule:evenodd;fill:#A1CDE4;}
</style>
<defs>
</defs>
<g id="Capa_x0020_1_1_">
	<rect class="st0" width="15" height="15"/>
	<path class="st1" d="M2.71,0h9.58c1.18,0,2.08,0.9,2.08,2.01v10.97c0,1.11-0.97,2.01-2.08,2.01H2.71c-1.11,0-2.01-0.9-2.01-2.01
		V2.01C0.69,0.9,1.6,0,2.71,0z M2.71,0.97h9.58c0.63,0,1.04,0.49,1.04,1.04v10.97c0,0.56-0.42,1.04-1.04,1.04H2.71
		c-0.56,0-1.04-0.49-1.04-1.04V2.01C1.67,1.46,2.15,0.97,2.71,0.97z M11.6,10c0.07,0.28-0.14,0.56-0.49,0.63
		c-0.28,0-0.56-0.21-0.56-0.56c-0.07-0.63-0.21-1.11-0.49-1.53C9.79,8.26,9.37,8.06,8.75,8.06H6.32C5.62,8.06,5.21,8.26,5,8.54
		c-0.35,0.42-0.42,0.9-0.49,1.53c0,0.35-0.28,0.56-0.63,0.56C3.61,10.56,3.4,10.28,3.4,10C3.47,9.17,3.68,8.47,4.1,7.92
		c0.35-0.49,0.83-0.76,1.46-0.9C5.14,6.53,4.86,5.9,4.86,5.14c0-0.69,0.28-1.39,0.76-1.88S6.81,2.5,7.5,2.5
		c0.76,0,1.39,0.28,1.87,0.76l0.07,0.07c0.49,0.49,0.76,1.11,0.76,1.81c0,0.76-0.28,1.39-0.76,1.88c0.69,0.14,1.18,0.42,1.53,0.9
		C11.39,8.47,11.6,9.17,11.6,10z M8.61,4.03C8.33,3.75,7.92,3.61,7.5,3.61S6.67,3.75,6.39,4.03C6.11,4.31,5.97,4.72,5.97,5.14
		c0,0.42,0.14,0.83,0.42,1.11C6.67,6.53,7.08,6.74,7.5,6.74s0.83-0.21,1.11-0.42V6.25C8.89,5.97,9.1,5.56,9.1,5.14
		S8.89,4.37,8.61,4.1V4.03z M5.21,11.46h4.65c0.21,0,0.42,0.21,0.42,0.56l0,0c0,0.28-0.21,0.56-0.42,0.56H5.21
		c-0.28,0-0.49-0.28-0.49-0.56l0,0C4.72,11.67,4.93,11.46,5.21,11.46z"/>
</g>
</svg>
