<svg version="1.1" xmlns="http://www.w3.org/2000/svg" xmlns:xlink="http://www.w3.org/1999/xlink" x="0px" y="0px" width="15px"
	 height="15px" viewBox="0 0 15 15" style="enable-background:new 0 0 15 15;" xml:space="preserve">
<style type="text/css">
	.st0{fill:none;}
	.st1{fill:#A1CDE4;}
</style>
<defs>
</defs>
<g id="Capa_x0020_1_1_">
	<g id="_1822623321456_1_">
		<rect class="st0" width="15" height="15"/>
		<path class="st1" d="M6.89,0.8L7.5,0.19l4.97,4.97c0.34,0.34,0.34,0.88,0,1.22c-0.34,0.32-0.86,0.32-1.2,0L8.35,3.45v10.51
			c0,0.46-0.37,0.85-0.85,0.85c-0.46,0-0.85-0.38-0.85-0.85V3.45L3.74,6.38c-0.34,0.32-0.88,0.32-1.22,0
			c-0.32-0.34-0.32-0.88,0-1.22C2.53,5.17,6.89,0.8,6.89,0.8z"/>
	</g>
</g>
</svg>
