<svg version="1.1" xmlns="http://www.w3.org/2000/svg" xmlns:xlink="http://www.w3.org/1999/xlink" x="0px" y="0px" width="148px"
	 height="148px" viewBox="0 0 148 148" style="enable-background:new 0 0 148 148;" xml:space="preserve">
<style type="text/css">
	.st0{fill:none;}
	.st1{fill:#5a889f;}
</style>
<defs>
</defs>
<g id="Capa_x0020_1_1_">
	<g id="_1336854366016_1_">
		<rect class="st0" width="148" height="148"/>
		<path class="st1" d="M85.89,25.34c7.45,5.2,12.39,13.77,14.42,24.04c2.38,12,0.82,26.42-5.28,40.41
			c-0.04,0.13-0.09,0.26-0.17,0.39c-6.15,13.95-15.68,24.9-26.12,31.27c-10.78,6.63-22.57,8.45-32.79,3.98
			c-10.27-4.5-16.94-14.42-19.36-26.81c-2.43-12.08-0.82-26.55,5.33-40.58c6.15-14.08,15.72-25.08,26.25-31.53
			c10.57-6.45,22.13-8.36,32.27-4.16c0.87-0.61,1.86-1.13,2.86-1.47c2.51-0.87,5.24-0.95,8.19-0.22c3.16,0.82,6.58,2.56,10.22,5.28
			c7.28,5.41,12.34,6.89,16.29,6.06c3.85-0.78,6.97-3.9,10.05-7.62c0.91-1.08,2.47-1.21,3.55-0.35c1.04,0.91,1.21,2.47,0.35,3.55
			c-3.72,4.46-7.58,8.23-12.95,9.36c-5.28,1.08-11.69-0.61-20.31-7.02c-3.08-2.3-5.89-3.77-8.4-4.42
			C88.66,25.12,87.19,25.08,85.89,25.34z M65.49,48.34c0.52-1.26,1.99-1.82,3.29-1.3c1.26,0.56,1.82,2.04,1.3,3.29
			c-0.52,1.17-1.04,2.34-1.52,3.51c0.95,0.65,1.86,1.43,2.73,2.38c1.69,1.82,3.12,4.2,4.03,7.1c0.39,1.3-0.35,2.73-1.65,3.12
			c-1.34,0.43-2.73-0.3-3.16-1.65c-0.65-2.12-1.69-3.85-2.9-5.2c-0.35-0.39-0.69-0.69-1.08-1.04c-2.25,5.46-4.42,10.96-6.58,16.42
			c4.5,3.51,8.92,7.36,9.27,13.56c0.39,7.49-3.55,12.65-8.88,15.12c-2.08,0.95-4.42,1.52-6.8,1.6c-1.82,0.09-3.68-0.13-5.46-0.61
			c-0.78,1.82-1.56,3.64-2.34,5.41c-0.56,1.26-2.04,1.86-3.29,1.3s-1.82-2.04-1.3-3.29c0.78-1.78,1.56-3.59,2.34-5.37
			c-4.46-2.73-7.75-7.58-8.1-14.81c-0.09-1.34,1-2.51,2.38-2.6c1.39-0.04,2.56,1,2.6,2.38c0.22,4.89,2.25,8.27,5.07,10.31
			c2.6-6.32,5.11-12.78,7.67-19.23l0.82-2.08c-0.91-0.74-1.82-1.43-2.64-2.25c-0.35-0.26-0.61-0.52-0.78-0.74
			c-2.6-2.82-3.55-6.32-3.29-9.66c0.22-3.21,1.6-6.37,3.72-8.71l0.13-0.17l0.82-0.78c1.3-1.21,2.82-2.08,4.46-2.6
			c2.43-0.74,5.07-0.78,7.67-0.04C64.49,50.59,64.97,49.46,65.49,48.34z M58.04,79.87l-0.3,0.69c-2.51,6.5-5.07,12.99-7.71,19.4
			c1.08,0.22,2.21,0.3,3.34,0.26c1.69-0.04,3.38-0.43,4.89-1.13c3.59-1.69,6.24-5.15,5.93-10.31C64.02,85.24,61.2,82.42,58.04,79.87
			z M55.83,71.77c2.04-5.11,4.07-10.27,6.19-15.38c-1.43-0.3-2.86-0.26-4.16,0.17c-1,0.3-1.86,0.78-2.6,1.47
			c-0.22,0.17-0.43,0.39-0.65,0.61c-1.39,1.56-2.25,3.64-2.43,5.72c-0.17,2.08,0.39,4.2,1.99,5.93l0.48,0.48
			C55.01,71.12,55.4,71.42,55.83,71.77z M74.67,29.45c0.56-1.17,1.21-2.25,1.86-3.21c-8.1-2.51-17.24-0.69-25.77,4.55
			c-9.66,5.93-18.54,16.16-24.26,29.24s-7.23,26.51-5.02,37.64c2.17,10.78,7.8,19.36,16.46,23.17c8.66,3.77,18.8,2.12,28.2-3.64
			c9.66-5.93,18.49-16.11,24.21-29.19l0.04-0.04c5.72-13.08,7.19-26.51,4.98-37.64c-1.95-9.79-6.76-17.8-14.12-22
			c-0.13,0.17-0.26,0.35-0.39,0.52c-0.52,0.69-1,1.47-1.43,2.34c0.95,0.78,1.69,1.82,2.12,2.95c0.69,1.73,0.69,3.72-0.13,5.59
			c-0.78,1.86-2.3,3.21-4.03,3.9c-1.73,0.69-3.77,0.69-5.59-0.13c-1.86-0.78-3.21-2.3-3.9-4.03c-0.69-1.73-0.69-3.72,0.09-5.59
			c0.82-1.86,2.34-3.21,4.07-3.9C72.9,29.63,73.76,29.45,74.67,29.45z"/>
	</g>
</g>
</svg>
