<svg version="1.1" xmlns="http://www.w3.org/2000/svg" xmlns:xlink="http://www.w3.org/1999/xlink" x="0px" y="0px" width="148px"
	 height="148px" viewBox="0 0 148 148" style="enable-background:new 0 0 148 148;" xml:space="preserve">
<style type="text/css">
	.st0{fill:none;}
	.st1{fill:#5a889f;}
</style>
<defs>
</defs>
<g id="Capa_x0020_1_1_">
	<g id="_1336905452160_1_">
		<rect class="st0" width="148" height="148"/>
		<path class="st1" d="M24.87,24.23h98.26c2.8,0,5.37,1.17,7.18,2.98l0.06,0.06c1.81,1.81,2.98,4.38,2.98,7.18v71.81h10.68
			c1.28,0,2.39,1.05,2.39,2.39l0.06,0.47c0,4.96-2.28,8.64-5.78,11.03c-3.27,2.28-7.65,3.44-12.2,3.62h-0.99H20.49H19.5
			c-4.5-0.18-8.76-1.28-12.03-3.5l-0.18-0.06c-3.5-2.45-5.72-6.13-5.72-11.09c0-0.06,0-0.35,0-0.47c0-1.34,1.05-2.39,2.39-2.39
			h10.68V34.45c0-2.8,1.17-5.37,2.98-7.18l0.06-0.06C19.5,25.4,22.07,24.23,24.87,24.23z M33.1,33.63h81.79
			c2.28,0,4.44,0.99,5.96,2.51l0,0c1.52,1.52,2.45,3.62,2.45,5.96v57.16c0,1.34-1.05,2.45-2.39,2.45H27.09
			c-1.34,0-2.39-1.11-2.39-2.45V42.09c0-2.34,0.93-4.44,2.45-5.96S30.77,33.63,33.1,33.63z M114.9,38.53H33.1
			c-0.93,0-1.87,0.41-2.51,1.05c-0.64,0.64-1.05,1.52-1.05,2.51v54.7h88.92v-54.7c0-0.99-0.41-1.87-1.05-2.51
			S115.89,38.53,114.9,38.53z M85.65,111.1v2.22c0,1.34-1.11,2.45-2.45,2.45H64.8c-1.34,0-2.45-1.11-2.45-2.45v-2.22H17.11H6.66
			c0.47,2.22,1.69,3.85,3.44,5.08l0.12,0.12c2.45,1.63,5.84,2.51,9.46,2.63c36.14,0.18,72.51,0.18,108.65,0
			c3.74-0.18,7.12-0.99,9.57-2.74c1.75-1.23,2.98-2.86,3.44-5.08h-10.45L85.65,111.1L85.65,111.1z M123.13,29.07H24.87
			c-1.46,0-2.8,0.64-3.79,1.58c-0.93,0.99-1.58,2.34-1.58,3.79v71.81h45.3H83.2h45.3V34.45c0-1.46-0.64-2.8-1.58-3.79
			C125.93,29.72,124.59,29.07,123.13,29.07z"/>
	</g>
</g>
</svg>
