<svg version="1.1" xmlns="http://www.w3.org/2000/svg" xmlns:xlink="http://www.w3.org/1999/xlink" x="0px" y="0px" width="148px"
	 height="148px" viewBox="0 0 148 148" style="enable-background:new 0 0 148 148;" xml:space="preserve">
<style type="text/css">
	.st0{fill:none;}
	.st1{fill:#5a889f;}
</style>
<defs>
</defs>
<g id="Capa_x0020_1_1_">
	<g id="_1336854318304_1_">
		<rect class="st0" width="148" height="148"/>
		<path class="st1" d="M74,16.3h0.07c15.9,0.02,30.31,6.48,40.74,16.91c10.44,10.44,16.9,24.87,16.9,40.8
			c0,15.93-6.46,30.36-16.9,40.8c-10.44,10.44-24.87,16.9-40.8,16.9c-15.93,0-30.35-6.46-40.8-16.9
			C22.78,104.38,16.32,89.97,16.3,74.07V74l0,0v-0.07c0.02-15.9,6.48-30.3,16.91-40.73S58.03,16.32,73.93,16.3L74,16.3
			C74,16.3,74,16.3,74,16.3z M76.51,27.1c11.97,0.63,22.75,5.75,30.7,13.7c7.95,7.94,13.06,18.73,13.69,30.69h5.73
			c-0.63-13.55-6.39-25.76-15.37-34.75c-8.98-8.98-21.19-14.73-34.75-15.37L76.51,27.1L76.51,27.1z M120.9,76.51
			c-0.63,11.97-5.74,22.75-13.69,30.7s-18.73,13.06-30.7,13.69v5.73c13.55-0.63,25.77-6.39,34.75-15.37s14.74-21.19,15.37-34.75
			L120.9,76.51L120.9,76.51z M71.49,120.9c-11.96-0.63-22.75-5.74-30.69-13.69c-7.95-7.95-13.06-18.73-13.7-30.7h-5.73
			c0.64,13.55,6.39,25.77,15.37,34.75c8.99,8.98,21.2,14.74,34.75,15.37V120.9L71.49,120.9z M27.1,71.49
			c0.63-11.96,5.75-22.75,13.7-30.69c7.94-7.95,18.73-13.06,30.69-13.7v-5.73c-13.55,0.64-25.76,6.39-34.75,15.37
			c-8.98,8.99-14.73,21.2-15.37,34.75H27.1z M103.66,44.34c-7.57-7.57-18.04-12.27-29.59-12.28H74l0,0h-0.07
			c-11.56,0.02-22.01,4.71-29.59,12.28c-7.57,7.58-12.27,18.04-12.28,29.59V74l0,0v0.07c0.02,11.56,4.71,22.02,12.28,29.59
			c7.57,7.57,18.03,12.27,29.58,12.29l0.08-0.01l0.08,0.01c11.55-0.02,22.01-4.72,29.58-12.29c7.57-7.57,12.27-18.03,12.29-29.58
			L115.94,74l0.01-0.08C115.93,62.37,111.23,51.91,103.66,44.34z M42.92,58.02c-1.2-0.69-1.6-2.22-0.91-3.41
			c0.69-1.2,2.22-1.6,3.41-0.91l24.21,13.98c1.24-0.86,2.75-1.36,4.37-1.36c2.12,0,4.04,0.86,5.43,2.26
			c1.4,1.39,2.26,3.31,2.26,5.43c0,1.8-0.63,3.47-1.67,4.78l10.96,18.99c0.69,1.2,0.29,2.73-0.91,3.42
			c-1.19,0.69-2.73,0.29-3.42-0.91L75.8,81.48c-0.58,0.14-1.18,0.21-1.8,0.21c-2.12,0-4.05-0.86-5.44-2.25l-0.15-0.17
			c-1.3-1.38-2.1-3.24-2.1-5.27c0-0.79,0.11-1.56,0.34-2.28L42.92,58.02L42.92,58.02z M75.89,72.1c-0.47-0.48-1.15-0.78-1.89-0.78
			c-0.74,0-1.41,0.3-1.89,0.78c-0.48,0.48-0.78,1.15-0.78,1.89c0,0.7,0.26,1.33,0.69,1.8l0.1,0.09c0.48,0.49,1.15,0.78,1.89,0.78
			c0.53,0,1.03-0.15,1.45-0.41l0,0l0.03-0.02l0.02-0.02c0.14-0.1,0.28-0.2,0.39-0.32l0.02-0.02c0.47-0.47,0.77-1.15,0.77-1.89
			C76.67,73.26,76.38,72.59,75.89,72.1L75.89,72.1z"/>
	</g>
</g>
</svg>
