<svg version="1.1" xmlns="http://www.w3.org/2000/svg" xmlns:xlink="http://www.w3.org/1999/xlink" x="0px" y="0px" width="148px"
	 height="148px" viewBox="0 0 148 148" style="enable-background:new 0 0 148 148;" xml:space="preserve">
<style type="text/css">
	.st0{fill:none;}
	.st1{fill:#5a889f;}
</style>
<defs>
</defs>
<g id="Capa_x0020_1_1_">
	<g id="_1336911717472_1_">
		<rect class="st0" width="148" height="148"/>
		<path class="st1" d="M88.39,104.8c1.38,0,2.5,1.11,2.5,2.5c0,1.38-1.13,2.5-2.5,2.5H25.08c-3.36,0-6.42-1.38-8.64-3.6
			c-2.22-2.2-3.6-5.26-3.6-8.62V30.39c0-3.35,1.38-6.4,3.6-8.62s5.28-3.6,8.64-3.6h97.84c3.36,0,6.42,1.38,8.64,3.6l0.14,0.14
			c2.13,2.22,3.45,5.21,3.45,8.48v67.19c0,3.36-1.38,6.42-3.6,8.62c-2.22,2.22-5.28,3.6-8.64,3.6h-3.63c-1.38,0-2.5-1.13-2.5-2.5
			c0-1.4,1.13-2.5,2.5-2.5h3.63c1.99,0,3.79-0.82,5.1-2.13c1.31-1.31,2.11-3.09,2.11-5.08V30.39c0-1.93-0.77-3.69-2-4.97l-0.11-0.11
			c-1.31-1.31-3.11-2.11-5.1-2.11H25.08c-1.99,0-3.79,0.81-5.1,2.11c-1.31,1.31-2.11,3.09-2.11,5.08v67.19
			c0,1.99,0.81,3.77,2.11,5.08s3.11,2.13,5.1,2.13H88.39z M26.94,40.57c-1.38,0-2.5-1.11-2.5-2.5c0-1.38,1.13-2.5,2.5-2.5h93.63
			c1.4,0,2.52,1.13,2.52,2.5c0,1.4-1.13,2.5-2.52,2.5H26.94z M26.94,53.56c-1.38,0-2.5-1.11-2.5-2.5c0-1.38,1.13-2.5,2.5-2.5h48
			c1.38,0,2.5,1.13,2.5,2.5c0,1.4-1.13,2.5-2.5,2.5C74.94,53.56,26.94,53.56,26.94,53.56z M26.94,66.57c-1.38,0-2.5-1.13-2.5-2.52
			c0-1.38,1.13-2.5,2.5-2.5h48c1.38,0,2.5,1.13,2.5,2.5c0,1.4-1.13,2.52-2.5,2.52C74.94,66.57,26.94,66.57,26.94,66.57z
			 M26.94,79.55c-1.38,0-2.5-1.13-2.5-2.5c0-1.4,1.13-2.52,2.5-2.52h48c1.38,0,2.5,1.13,2.5,2.52c0,1.38-1.13,2.5-2.5,2.5
			C74.94,79.55,26.94,79.55,26.94,79.55z M26.94,92.54c-1.38,0-2.5-1.13-2.5-2.5c0-1.4,1.13-2.5,2.5-2.5h48c1.38,0,2.5,1.11,2.5,2.5
			c0,1.38-1.13,2.5-2.5,2.5C74.94,92.54,26.94,92.54,26.94,92.54z M91.22,99.11c0-0.39,0.09-0.77,0.25-1.11
			c-1.04-0.18-1.86-1-2.02-2.09l-1.06-5.74l-5.06-2.63c-1.23-0.64-1.72-2.16-1.07-3.38l2.54-5.28l-2.56-5.12
			c-0.61-1.23-0.11-2.74,1.13-3.36l5.15-2.77l0.93-5.64c0.23-1.36,1.52-2.27,2.88-2.06l5.8,0.79l4.08-4.01
			c0.97-0.95,2.5-0.97,3.49-0.04l4.29,4.1l5.65-0.84c1.38-0.21,2.65,0.73,2.84,2.11l1.04,5.74l5.08,2.63
			c1.22,0.64,1.7,2.16,1.07,3.38l-2.54,5.26l2.56,5.13c0.61,1.23,0.11,2.74-1.13,3.36l-5.15,2.77l-0.95,5.64
			c-0.16,1.04-0.97,1.82-1.95,2.04c0.13,0.3,0.2,0.64,0.2,0.98v28.34h-0.02c0,0.66-0.27,1.32-0.79,1.82
			c-1.02,0.93-2.59,0.88-3.54-0.14l-8.59-9.27l-8.23,7.66c-0.47,0.48-1.11,0.79-1.82,0.79c-1.4,0-2.5-1.13-2.5-2.5L91.22,99.11
			L91.22,99.11z M95.67,97.52c0.34,0.43,0.55,0.98,0.55,1.59v20.81l5.98-5.55c1-0.95,2.59-0.89,3.54,0.13l5.96,6.44V98.98
			c0-0.54,0.16-1.02,0.45-1.43l-2.36-0.32l-4.08,4.01c-0.97,0.95-2.5,0.95-3.47,0.04l-4.29-4.1C97.95,97.18,95.67,97.52,95.67,97.52
			z M107.41,65.24l-3.42-3.27l-3.22,3.17c-0.54,0.52-1.29,0.81-2.09,0.7l-4.69-0.63l-0.75,4.45c-0.13,0.73-0.57,1.41-1.29,1.79
			l-4.15,2.24l2.02,4.04c0.32,0.68,0.36,1.48,0,2.2l-2.04,4.26l4.01,2.09c0.66,0.36,1.16,0.98,1.31,1.77l0.84,4.65l4.49-0.66
			c0.73-0.11,1.5,0.13,2.08,0.66l3.43,3.27l3.22-3.17c0.54-0.52,1.29-0.81,2.08-0.7l4.7,0.63l0.75-4.45
			c0.11-0.73,0.57-1.41,1.27-1.79l4.17-2.24l-2.02-4.04c-0.32-0.68-0.36-1.48-0.02-2.2l2.06-4.26l-4.01-2.09
			c-0.66-0.36-1.16-0.98-1.31-1.77l-0.86-4.65l-4.47,0.66C108.77,66.01,108,65.8,107.41,65.24L107.41,65.24z M103.96,67.44
			c3.18,0,6.06,1.31,8.16,3.38c2.08,2.09,3.36,4.97,3.36,8.14c0,3.18-1.29,6.06-3.36,8.16l-0.16,0.14c-2.08,2-4.9,3.24-8,3.24
			c-3.17,0-6.06-1.31-8.14-3.38c-2.09-2.09-3.38-4.97-3.38-8.16c0-3.17,1.29-6.05,3.38-8.12v-0.02
			C97.93,68.73,100.79,67.44,103.96,67.44z M108.55,74.37c-1.16-1.16-2.79-1.9-4.6-1.9s-3.43,0.72-4.6,1.9l0,0
			c-1.18,1.18-1.9,2.81-1.9,4.6c0,1.81,0.72,3.43,1.9,4.62c1.18,1.16,2.81,1.9,4.6,1.9c1.75,0,3.35-0.68,4.49-1.79l0.11-0.11
			c1.18-1.18,1.91-2.81,1.91-4.62C110.47,77.18,109.73,75.55,108.55,74.37z"/>
	</g>
</g>
</svg>
