<svg version="1.1" xmlns="http://www.w3.org/2000/svg" xmlns:xlink="http://www.w3.org/1999/xlink" x="0px" y="0px" width="15px"
	 height="15px" viewBox="0 0 15 15" style="enable-background:new 0 0 15 15;" xml:space="preserve">
<style type="text/css">
	.st0{fill:none;}
	.st1{fill-rule:evenodd;clip-rule:evenodd;fill:#A1CDE4;}
</style>
<defs>
</defs>
<g id="Capa_x0020_1_1_">
	<g id="_1822623369744_1_">
		<rect class="st0" width="15" height="15"/>
		<path class="st1" d="M2.16,0h6.35h0.72l4.62,4.47v0.58v8.94c0,0.58-0.43,1.01-1.01,1.01H2.16c-0.43,0-0.87-0.43-0.87-1.01V1.01
			C1.3,0.43,1.73,0,2.16,0z M8.51,1.01H2.16v12.98h10.67V5.05h-0.29H8.51V1.3C8.51,1.3,8.51,1.01,8.51,1.01z M11.83,4.04L9.52,1.59
			v2.45H11.83z M4.76,11.25h5.48c0.29,0,0.43,0.43,0.43,0.72l0,0c0,0.43-0.14,0.87-0.43,0.87H4.76c-0.29,0-0.43-0.43-0.43-0.87l0,0
			C4.33,11.68,4.47,11.25,4.76,11.25z M4.76,7.5h5.48c0.29,0,0.43,0.29,0.43,0.72l0,0c0,0.43-0.14,0.87-0.43,0.87H4.76
			c-0.29,0-0.43-0.43-0.43-0.87l0,0C4.33,7.79,4.47,7.5,4.76,7.5z"/>
	</g>
</g>
</svg>
