<svg version="1.1" xmlns="http://www.w3.org/2000/svg" xmlns:xlink="http://www.w3.org/1999/xlink" x="0px" y="0px" width="15px"
	 height="15px" viewBox="0 0 15 15" style="enable-background:new 0 0 15 15;" xml:space="preserve">
<style type="text/css">
	.st0{fill:none;}
	.st1{fill:#A1CDE4;}
</style>
<defs>
</defs>
<g id="Capa_x0020_1_1_">
	<g id="_1822698319472_1_">
		<rect class="st0" width="15" height="15"/>
		<path class="st1" d="M13.4,3.32L11.68,1.6c-0.12-0.12-0.12-0.12-0.25-0.12s-0.25,0-0.25,0.12L10.08,2.7l1.11,1.11l0,0l0,0
			l1.23,1.11l0.98-0.98c0.12-0.12,0.12-0.25,0.12-0.37C13.52,3.57,13.52,3.44,13.4,3.32z M2.21,8.98c0,0,0,0,0-0.12h0.12l6.52-6.64
			l0,0l0,0l1.48-1.48c0.25-0.25,0.74-0.37,1.11-0.37c0.37,0,0.74,0.12,1.11,0.37l1.72,1.84c0.25,0.25,0.49,0.61,0.49,0.98
			c0,0.49-0.25,0.86-0.49,1.11l-1.48,1.48l0,0l0,0l-6.39,6.52H6.27l0,0l0,0l0,0v0.12H6.15H6.02l-5.66,1.97
			C0.37,14.75,2.21,8.98,2.21,8.98z M3.57,9.1L4.3,9.84l0.86,0.86l0,0l0.74,0.74l5.66-5.66l-0.74-0.74L9.96,4.18l0,0L9.22,3.44
			C9.22,3.44,3.57,9.1,3.57,9.1z M4.8,12.05l-0.86-0.98l0,0l0,0L3.07,10.2l-0.49,1.48l0.74,0.74C3.32,12.42,4.8,12.05,4.8,12.05z"/>
	</g>
</g>
</svg>
