<svg version="1.1" 
	xmlns="http://www.w3.org/2000/svg" 
	xmlns:xlink="http://www.w3.org/1999/xlink" 
	x="0px" y="0px" 
	width="15px"
	height="15px" 
	viewBox="0 0 15 15" 
	style="enable-background:new 0 0 15 15;" 
	xml:space="preserve">
<style type="text/css">
	.st0{fill:none;}
	.st1{fill:#A1CDE4;}
</style>
<defs>
</defs>
<g id="Capa_x0020_1_1_">
	<g id="_1822629058416_1_">
		<rect class="st0" width="15" height="15"/>
		<path class="st1" d="M2,3.45H1.64V3l5.91-2.18L13.45,3v0.45h-0.36H2C2,3.45,2,3.45,2,3.45z M2.73,12.18
			c0.18,0,0.36-0.09,0.64-0.18c1.18-0.45,2.82-1.09,4.09,0.55v1.73c-1.36-1.45-3.09-0.82-4.18-0.45C3.09,13.91,2.82,14,2.73,14.09
			c-1,0.27-2,0.09-2.27,0v-1.82C0.82,12.36,1.82,12.55,2.73,12.18z M11.73,12c0.18,0.09,0.36,0.18,0.55,0.18
			c1,0.36,2,0.18,2.27,0.09v1.82c-0.27,0.09-1.27,0.27-2.18,0C12.18,14,12,13.91,11.73,13.82c-1.09-0.36-2.73-1-4.09,0.45v-1.82
			C8.91,10.91,10.55,11.55,11.73,12C11.73,12,11.73,12,11.73,12z M12.18,4.55h-0.91v6.18c0.27,0.09,0.55,0.18,0.82,0.27h0.09V4.55
			L12.18,4.55z M7.91,10.82V4.55H7.09v6.27c0.18,0.09,0.27,0.18,0.45,0.27C7.64,11,7.82,10.91,7.91,10.82z M3.73,4.55H2.91V11H3
			c0.27-0.09,0.45-0.18,0.73-0.27C3.73,10.73,3.73,4.55,3.73,4.55z M5.82,4.55H5v5.91c0.27,0,0.55,0,0.82,0
			C5.82,10.45,5.82,4.55,5.82,4.55z M10,4.55H9.18v5.91c0.27,0,0.55,0,0.82,0C10,10.45,10,4.55,10,4.55z M2,4.18h0.82h9.45h0.82
			V3.64H2V4.18L2,4.18z"/>
	</g>
</g>
</svg>
